#N canvas 235 59 1196 769 24;
#X obj -507 10 cnv 15 620 100 empty empty empty 20 12 0 14 -228992
-66577 0;
#X obj -502 335 cnv 15 620 250 empty empty empty 20 12 0 14 -225271
-66577 0;
#X obj -101 118 cnv 15 325 175 empty empty empty 20 12 0 14 -228992
-66577 0;
#X text -310 22 Messages can be packed into;
#X text -312 48 lists and sent to other;
#X text -312 74 objects without patch cords;
#X obj -96 164 t b;
#X msg -96 205 ?;
#X obj -509 118 cnv 15 400 175 empty empty empty 20 12 0 14 -228992
-66577 0;
#X text -349 155 unpack separates;
#X text -345 181 list elements;
#X text -29 159 receive objects;
#X text -27 182 can be in any;
#X text -29 206 subpatch;
#X text -497 341 route matches the first element of a list;
#X obj -495 548 print hye;
#X obj -343 547 print maybe;
#X obj -162 548 print yes;
#X obj -14 548 print no;
#X msg -495 375 2 na;
#X msg -369 374 can not;
#X msg -249 374 sam 1 am;
#X msg -112 375 tony the tiger;
#X obj -495 472 route 2;
#X obj -343 472 route can sam;
#X obj 234 14 cnv 15 270 250 empty empty empty 20 12 0 14 -257472 -66577
0;
#X msg 242 88 1 2 3 \, 4 5 6;
#X obj 242 140 unpack 0 0 0;
#X obj 242 182 pack 0 0 0;
#X obj 242 227 print ladybugs;
#X text 243 16 comma separates;
#X text 243 40 multiple messages;
#X obj 146 334 cnv 15 220 250 empty empty empty 20 12 0 14 -261681
-66577 0;
#X obj 159 505 spigot;
#X obj 244 449 tgl 30 0 empty empty empty 0 -6 0 8 -262144 -1 -1 0
1;
#X text 210 387 open/close;
#X text 210 412 the spigot;
#X floatatom 159 547 5 0 0 0 - - -;
#X obj 159 349 vsl 30 128 0 127 0 0 empty empty empty 0 -8 0 8 -262144
-1 -1 0 1;
#X obj 373 292 cnv 15 300 170 empty empty empty 20 12 0 14 -262131
-66577 0;
#X obj 378 349 sel 2 4 8;
#X text 460 290 select outputs;
#X text 459 314 a bang when an;
#X text 547 418 argument;
#X obj 378 400 bng 25 250 50 0 empty empty empty 0 -6 0 8 -262144 -1
-1;
#X obj 421 404 bng 25 250 50 0 empty empty empty 0 -6 0 8 -262144 -1
-1;
#X obj 464 401 bng 25 250 50 0 empty empty empty 0 -6 0 8 -262144 -1
-1;
#X obj 508 420 bng 25 250 50 0 empty empty empty 0 -6 0 8 -262144 -1
-1;
#X floatatom 378 300 5 0 0 0 - - -;
#X text 520 345 input;
#X text 522 369 number;
#X text 523 394 matches an;
#X obj 158 593 cnv 15 300 170 empty empty empty 20 12 0 14 -225280
-66577 0;
#X obj 165 598 bng 25 250 50 0 empty empty empty 0 -6 0 8 -262144 -1
-1;
#X floatatom 207 601 5 0 0 0 - - -;
#X obj 207 666 float;
#X text 349 616 a number;
#X floatatom 277 625 5 0 0 0 - - -;
#X floatatom 207 714 5 0 0 0 - - -;
#X text 338 599 float;
#X text 395 599 stores;
#X obj 396 723 5.5;
#X text 330 725 also;
#X obj -96 249 print which_one_first;
#X obj -499 76 send somenumbers;
#X msg -499 19 433 808;
#X obj -508 165 unpack 0 0;
#X obj -508 256 print cage;
#X obj -360 256 print marvin;
#X obj -508 126 receive somenumbers;
#X obj -96 126 receive somenumbers;
#X text 282 658 (Shift+scroll for;
#X text 284 681 hundredths);
#X connect 6 0 7 0;
#X connect 7 0 63 0;
#X connect 19 0 23 0;
#X connect 20 0 24 0;
#X connect 21 0 24 0;
#X connect 22 0 24 0;
#X connect 23 0 15 0;
#X connect 24 0 16 0;
#X connect 24 1 17 0;
#X connect 24 2 18 0;
#X connect 26 0 27 0;
#X connect 27 0 28 0;
#X connect 27 1 28 1;
#X connect 27 2 28 2;
#X connect 28 0 29 0;
#X connect 33 0 37 0;
#X connect 34 0 33 1;
#X connect 38 0 33 0;
#X connect 40 0 44 0;
#X connect 40 1 45 0;
#X connect 40 2 46 0;
#X connect 40 3 47 0;
#X connect 48 0 40 0;
#X connect 53 0 55 0;
#X connect 54 0 55 0;
#X connect 55 0 58 0;
#X connect 57 0 55 1;
#X connect 65 0 64 0;
#X connect 66 0 67 0;
#X connect 66 1 68 0;
#X connect 69 0 66 0;
#X connect 70 0 6 0;
