#N canvas 1578 0 753 735 24;
#X obj 9 636 dac~;
#X obj 35 588 *~;
#X obj 74 550 line~;
#X msg 74 514 \$1 50;
#X obj 74 329 vsl 25 128 0 127 0 0 empty empty empty 0 -8 0 8 -262144
-1 -1 8400 1;
#X obj 74 477 / 127;
#X text 106 406 Level;
#X obj 35 293 *~;
#X obj 208 296 line~;
#X obj 35 18 t b b b b;
#X obj 35 75 random 60;
#X obj 35 114 + 30;
#X obj 35 153 mtof;
#X obj 416 117 random 500;
#X obj 35 -47 bng 50 250 50 0 empty empty empty 0 -6 0 8 -258113 -1
-1;
#X obj 416 174 pipe;
#X msg 612 197 0.5 \$1;
#X msg 416 215 0.5 \$1;
#X obj 208 189 pipe;
#X obj 284 182 +;
#X msg 208 229 0 \$1;
#X text 608 89 attack time;
#X text 410 77 sustain time;
#X text 191 82 release time;
#X obj 35 190 osc~;
#X text 278 -37 Attack \, sustain \, release;
#X obj 612 124 random 100;
#X obj 208 108 random 100;
#X connect 1 0 0 0;
#X connect 1 0 0 1;
#X connect 2 0 1 1;
#X connect 3 0 2 0;
#X connect 4 0 5 0;
#X connect 5 0 3 0;
#X connect 7 0 1 0;
#X connect 8 0 7 1;
#X connect 9 0 10 0;
#X connect 9 1 27 0;
#X connect 9 2 13 0;
#X connect 9 3 26 0;
#X connect 10 0 11 0;
#X connect 11 0 12 0;
#X connect 12 0 24 0;
#X connect 13 0 15 0;
#X connect 13 0 19 0;
#X connect 14 0 9 0;
#X connect 15 0 17 0;
#X connect 16 0 8 0;
#X connect 17 0 8 0;
#X connect 18 0 20 0;
#X connect 19 0 18 1;
#X connect 20 0 8 0;
#X connect 24 0 7 0;
#X connect 26 0 19 1;
#X connect 26 0 15 1;
#X connect 26 0 16 0;
#X connect 27 0 18 0;
