#N canvas 1542 44 847 480 36;
#N canvas 0 22 572 361 grapha 0;
#X obj 1 -1 cnv 15 100 100 empty empty empty 20 12 0 14 -262144 -66577
0;
#N canvas 0 22 450 300 (subpatch) 0;
#X array B 100 float 0;
#X coords 0 1 99 -1 200 200 1 0 0;
#X restore 0 0 graph;
#X obj 210 182 tabwrite~ B;
#X obj 210 89 r b;
#X obj 310 98 r~ B;
#X connect 3 0 2 0;
#X connect 4 0 2 0;
#X coords 0 -1 1 1 200 200 2 0 0;
#X restore 623 -54 pd grapha;
#X obj 93 -12 s~ A;
#X obj 68 -81 osc~ 640;
#X obj 135 232 s~ B;
#X obj 68 146 *~ 0.2;
#N canvas 1604 128 829 450 g 0;
#X obj 299 -41 cnv 15 200 200 empty empty empty 20 12 0 14 -262144
-66577 0;
#N canvas 0 22 400 257 (subpatch) 0;
#X array A 100 float 0;
#X coords 0 1 99 -1 200 200 1 0 0;
#X restore 0 0 graph;
#X obj 465 293 tabwrite~ A;
#X obj 427 170 loadbang;
#X obj 361 170 bng 45 250 50 0 empty empty empty 0 -6 0 8 -262144 -1
-1;
#X obj 361 295 s b;
#X obj 361 229 metro 200;
#X obj 613 232 r~ A;
#X connect 3 0 6 0;
#X connect 4 0 6 0;
#X connect 6 0 2 0;
#X connect 6 0 5 0;
#X connect 7 0 2 0;
#X coords 0 -1 1 1 200 200 2 0 0;
#X restore 330 -52 pd g;
#X text 65 -174 Scale an audio signal;
#X floatatom 197 88 5 0 0 0 - - -;
#X obj 10 237 output~;
#X connect 2 0 1 0;
#X connect 2 0 4 0;
#X connect 4 0 3 0;
#X connect 4 0 8 0;
#X connect 4 0 8 1;
#X connect 7 0 4 1;
