#N canvas 137 115 1292 491 36;
#N canvas 0 22 572 361 grapha 0;
#X obj 1 -1 cnv 15 100 100 empty empty empty 20 12 0 14 -262144 -66577
0;
#N canvas 0 22 450 300 (subpatch) 0;
#X array B 100 float 0;
#X coords 0 1 99 -1 200 200 1 0 0;
#X restore 0 0 graph;
#X obj 210 182 tabwrite~ B;
#X obj 210 89 r b;
#X obj 310 98 r~ B;
#X connect 3 0 2 0;
#X connect 4 0 2 0;
#X coords 0 -1 1 1 200 200 2 0 0;
#X restore 703 -347 pd grapha;
#X obj 88 -352 s~ A;
#X obj 67 -418 osc~ 640;
#X obj 132 -101 s~ B;
#N canvas 554 162 829 450 g 0;
#X obj 69 65 cnv 15 200 200 empty empty empty 20 12 0 14 -262144 -66577
0;
#N canvas 0 22 400 257 (subpatch) 0;
#X array A 100 float 0;
#X coords 0 1 99 -1 200 200 1 0 0;
#X restore 0 0 graph;
#X obj 348 333 tabwrite~ A;
#X obj 310 210 loadbang;
#X obj 244 210 bng 45 250 50 0 empty empty empty 0 -6 0 8 -262144 -1
-1;
#X obj 244 335 s b;
#X obj 244 269 metro 200;
#X obj 496 272 r~ A;
#X connect 3 0 6 0;
#X connect 4 0 6 0;
#X connect 6 0 2 0;
#X connect 6 0 5 0;
#X connect 7 0 2 0;
#X coords 0 -1 1 1 200 200 2 0 0;
#X restore 410 -345 pd g;
#X obj 9 -98 output~;
#X obj 67 -181 clip~ -0.9 0.9;
#X obj 67 -260 *~ 2;
#X text 64 -501 to dac~ exceeds -1 or 1.);
#X text 64 -534 Clipping. (This happens if signal;
#X connect 2 0 1 0;
#X connect 2 0 7 0;
#X connect 6 0 3 0;
#X connect 6 0 5 0;
#X connect 6 0 5 1;
#X connect 7 0 6 0;
