#N canvas 273 72 852 746 12;
#X obj 525 63 soundfiler;
#N canvas 0 22 450 278 (subpatch) 0;
#X array mysound 56847 float 2;
#X coords 0 1 56847 -1 200 140 1;
#X restore 525 165 graph;
#X floatatom 525 91 10 0 0 0 - - -;
#X obj 22 504 line~;
#X obj 11 718 dac~;
#X obj 22 692 *~ 0.05;
#X obj 22 427 t a b;
#X msg 54 458 0;
#X text 606 713 Patch made by Edgar Berdahl;
#X text 509 16 audio WAV file into the table called mysample;
#X text 510 3 First click on the message below to load an;
#X text 599 91 Size of loaded sound in samples;
#X msg 525 35 read -resize breaking-saucer.wav mysound;
#X obj 22 667 tabread4~ mysound;
#X msg 22 379 56847 1289.05;
#X connect 0 0 2 0;
#X connect 3 0 13 0;
#X connect 5 0 4 0;
#X connect 5 0 4 1;
#X connect 6 0 3 0;
#X connect 6 1 7 0;
#X connect 7 0 3 0;
#X connect 12 0 0 0;
#X connect 13 0 5 0;
#X connect 14 0 6 0;
