#N canvas 1486 93 930 563 24;
#X obj 383 114 soundfiler;
#N canvas 0 22 450 278 (subpatch) 0;
#X array mysound 264600 float 2;
#X coords 0 1 264600 -1 200 140 1;
#X restore 18 42 graph;
#X floatatom 383 216 10 0 0 0 - - -;
#X obj 138 522 dac~;
#X obj 157 481 *~ 0.05;
#X text 615 478 Patch made by Edgar Berdahl;
#X text 506 215 Size of loaded sound in samples;
#X msg 351 44 read -resize johnshort.wav mysound;
#X msg 383 75 read -resize breaking-saucer.wav mysound;
#X obj 157 447 tabread4~ mysound;
#N canvas 1699 186 398 278 get-size 0;
#X obj 19 15 inlet;
#X floatatom 19 40 10 0 0 0 - - -;
#X text 87 40 Length of loaded sound in samples;
#X obj 128 173 * 1000;
#X floatatom 128 196 10 0 0 0 - - -;
#X text 197 197 Length of loaded sound in ms;
#X text 170 172 <-- To convert seconds to ms;
#X obj 19 62 t f f;
#N canvas 176 394 468 127 get-sampling-rate 0;
#X floatatom 9 11 8 0 0 0 - - -;
#X text 64 11 Samples/sec;
#X obj 9 35 outlet;
#X obj 9 -12 samplerate~;
#X obj 9 -33 bng 15 250 50 0 empty empty empty 17 7 0 10 -262144 -1
-1;
#X obj 9 -55 r pd;
#X obj 43 -55 loadbang;
#X text 126 -58 Recheck what the sampling rate is when the patch is
originally opened and whenever the message "pd" is sent.;
#X connect 0 0 2 0;
#X connect 3 0 0 0;
#X connect 4 0 3 0;
#X connect 5 0 4 0;
#X connect 6 0 4 0;
#X restore 167 106 pd get-sampling-rate;
#X floatatom 167 129 5 0 0 0 - - -;
#X obj 128 150 / 44100;
#X obj 128 220 outlet;
#X obj 19 249 outlet;
#X connect 0 0 1 0;
#X connect 1 0 7 0;
#X connect 3 0 4 0;
#X connect 4 0 11 0;
#X connect 7 0 12 0;
#X connect 7 1 10 0;
#X connect 8 0 9 0;
#X connect 9 0 10 1;
#X connect 10 0 3 0;
#X restore 383 152 pd get-size;
#X floatatom 501 184 10 0 0 0 - - -;
#X text 619 182 Length of loaded sound in ms;
#X msg 292 13 read -resize drumloop160bpm.wav mysound;
#X obj 21 193 hsl 195 15 0 127 0 0 empty empty empty -2 -8 0 10 -262144
-1 -1 0 1;
#X floatatom 157 322 12 0 0 0 - - -;
#X obj 157 286 maxlib/scale 0 127 0 44100;
#X obj 157 389 line~;
#X msg 157 355 \$1 100;
#X obj 554 342 snapshot~;
#X obj 641 297 metro 100;
#X obj 642 270 tgl 15 0 empty empty empty 17 7 0 10 -262144 -1 -1 0
1;
#X floatatom 554 386 5 0 0 0 - - -;
#X obj 539 456 * 30;
#X obj 532 500 + 25;
#X obj 489 292 osc~ 0.3;
#X connect 0 0 10 0;
#X connect 2 0 16 4;
#X connect 4 0 3 0;
#X connect 4 0 3 1;
#X connect 7 0 0 0;
#X connect 8 0 0 0;
#X connect 9 0 4 0;
#X connect 10 0 2 0;
#X connect 10 1 11 0;
#X connect 13 0 0 0;
#X connect 14 0 16 0;
#X connect 15 0 18 0;
#X connect 16 0 15 0;
#X connect 17 0 9 0;
#X connect 18 0 17 0;
#X connect 19 0 22 0;
#X connect 20 0 19 0;
#X connect 21 0 20 0;
#X connect 22 0 23 0;
#X connect 23 0 24 0;
#X connect 24 0 14 0;
#X connect 25 0 19 0;
