#N canvas 0 0 450 300 10;
#X obj 131 91 metro 50;
#X obj 131 71 tgl 15 0 empty empty empty 0 -6 0 8 -262144 -1 -1 1 1
;
#N canvas 0 0 463 411 krate-lfo-sin 0;
#X obj 109 23 inlet bang;
#X obj 208 21 inlet reset;
#X msg 208 46 0;
#X obj 144 84 + 1;
#X obj 109 84 f 0;
#X obj 109 49 t b;
#X obj 109 140 / 100;
#X obj 109 116 mod 100;
#X obj 109 169 * 6.283;
#X obj 109 200 cos;
#X obj 109 230 + 1;
#X obj 109 259 * 0.5;
#X obj 109 293 outlet lfo;
#X text 179 169 2 * pi;
#X text 172 225 set above zero;
#X text 169 258 scale 0 - 1;
#X obj 322 21 inlet speed;
#X obj 322 50 max 4;
#X obj 322 76 t f f;
#X connect 0 0 5 0;
#X connect 1 0 2 0;
#X connect 2 0 4 0;
#X connect 3 0 4 1;
#X connect 4 0 3 0;
#X connect 4 0 7 0;
#X connect 5 0 4 0;
#X connect 6 0 8 0;
#X connect 7 0 6 0;
#X connect 8 0 9 0;
#X connect 9 0 10 0;
#X connect 10 0 11 0;
#X connect 11 0 12 0;
#X connect 16 0 17 0;
#X connect 17 0 18 0;
#X connect 18 0 7 1;
#X connect 18 1 6 1;
#X restore 131 126 pd krate-lfo-sin;
#X obj 131 152 nbx 5 14 -1e+37 1e+37 0 0 empty empty empty 0 -6 0 10
-262144 -1 -1 0.316677 256;
#X obj 241 98 hsl 128 15 0 300 0 0 empty empty time 35 7 1 8 -233017
-258699 -1 12300 1;
#X connect 0 0 2 0;
#X connect 1 0 0 0;
#X connect 2 0 3 0;
#X connect 4 0 2 2;
