#N canvas 594 250 1031 565 10;
#X floatatom 584 154 5 0 0 0 - - -;
#X obj 268 399 *~;
#X obj 258 431 dac~;
#X floatatom 319 176 5 0 0 0 - - -;
#X floatatom 362 175 5 0 0 0 - - -;
#X obj 97 87 metro;
#X obj 97 28 bng 15 250 50 0 empty empty empty 17 7 0 10 -262144 -1
-1;
#X obj 183 162 float;
#X floatatom 197 280 5 0 0 0 - - -;
#X obj 210 52 metro;
#X obj 198 348 phasor~;
#X obj 587 184 hsl 128 15 0 127 0 0 empty empty empty -2 -8 0 10 -262144
-1 -1 0 1;
#X obj 288 342 osc~;
#X msg 78 -10 stop;
#X obj 210 82 + 0;
#X obj 584 125 * 100;
#X obj 362 149 * 200;
#X obj 197 304 czero_rev~;
#X obj 197 222 + 25;
#X obj 319 149 * 800;
#X floatatom 404 176 5 0 0 0 - - -;
#X obj 404 149 * 100;
#X obj 230 -50 inlet;
#X obj 273 -50 inlet;
#X obj 317 -50 inlet;
#X obj 360 -50 inlet;
#X floatatom 230 -26 5 0 0 0 - - -;
#X floatatom 273 -26 5 0 0 0 - - -;
#X floatatom 317 -25 5 0 0 0 - - -;
#X floatatom 360 -25 5 0 0 0 - - -;
#X connect 0 0 11 0;
#X connect 1 0 2 0;
#X connect 1 0 2 1;
#X connect 3 0 9 1;
#X connect 3 0 7 1;
#X connect 4 0 18 1;
#X connect 5 0 7 0;
#X connect 6 0 5 0;
#X connect 6 0 9 0;
#X connect 7 0 18 0;
#X connect 8 0 17 0;
#X connect 9 0 14 0;
#X connect 10 0 1 0;
#X connect 12 0 1 0;
#X connect 13 0 5 0;
#X connect 13 0 9 0;
#X connect 13 0 15 0;
#X connect 14 0 7 1;
#X connect 15 0 0 0;
#X connect 16 0 4 0;
#X connect 17 0 10 0;
#X connect 17 0 12 0;
#X connect 18 0 8 0;
#X connect 18 0 7 1;
#X connect 19 0 3 0;
#X connect 21 0 20 0;
#X connect 22 0 26 0;
#X connect 23 0 27 0;
#X connect 24 0 28 0;
#X connect 25 0 29 0;
#X connect 26 0 15 0;
#X connect 27 0 19 0;
#X connect 28 0 16 0;
#X connect 29 0 21 0;
