#N canvas 705 281 450 300 10;
#X obj 238 237 print;
#X msg 241 191 \$1 10;
#X floatatom 237 144 5 0 0 0 - - -;
#X floatatom 45 69 5 0 0 0 - - -;
#X floatatom 99 70 5 0 0 0 - - -;
#X obj 63 152 pack 0 0;
#X obj 72 108 t b f;
#X msg 63 198 \$1 10 \$2;
#X connect 1 0 0 0;
#X connect 2 0 1 0;
#X connect 3 0 5 0;
#X connect 4 0 6 0;
#X connect 5 0 7 0;
#X connect 6 0 5 0;
#X connect 6 1 5 1;
#X connect 7 0 0 0;
