#N canvas 1912 0 1920 997 10;
#X floatatom 119 131 0 0 120 0 - - -;
#X text 160 131 level \, dB;
#X floatatom 154 153 0 0 100 0 - - -;
#X text 195 153 liveness \, 0-100;
#X floatatom 189 177 4 0 5000 0 - - -;
#X floatatom 224 200 0 0 100 0 - - -;
#X text 237 175 crossover frequency \, Hz.;
#X text 260 202 HF damping \, percent;
#X obj 96 229 rev3~ 100 90 3000 20;
#X floatatom 95 6 5 0 0 0 - - -;
#X obj 95 -22 int;
#X obj 96 63 osc~;
#X obj 95 37 *~ 0.35;
#X obj 98 -76 hsl 128 15 0 1 0 0 empty empty empty -2 -8 0 10 -262144
-1 -1 4200 1;
#X obj 95 -50 * 1500;
#X obj 392 -13 hsl 128 15 0 1 0 0 empty empty empty -2 -8 0 10 -262144
-1 -1 4200 1;
#X text 413 14 comment;
#X floatatom 389 68 5 0 0 0 - - -;
#X obj 389 40 int;
#X obj 389 97 *~ 0.35;
#X floatatom 447 110 0 0 120 0 - - -;
#X text 488 110 level \, dB;
#X floatatom 482 132 0 0 100 0 - - -;
#X text 523 132 liveness \, 0-100;
#X floatatom 517 156 4 0 5000 0 - - -;
#X floatatom 552 179 0 0 100 0 - - -;
#X text 565 154 crossover frequency \, Hz.;
#X text 588 181 HF damping \, percent;
#X obj 68 336 hsl 128 15 0 90 0 0 empty empty empty -2 -8 0 10 -262144
-1 -1 7500 1;
#X obj 14 174 / 127;
#X obj 389 160 *~ 0;
#X obj 477 250 rev3~ 0 0 0 0;
#X obj 388 125 osc~;
#X obj 389 12 * 2200;
#X obj 95 93 *~ 0;
#X obj 286 305 dac~;
#X obj 295 590 hsl 128 15 0 127 0 0 empty empty Volume -2 -8 0 10 -4034
-1 -1 0 1;
#X obj 292 625 s vol;
#X obj 84 294 r vol;
#X obj 915 335 dac~;
#X obj 722 327 hsl 128 15 0 90 0 0 empty empty empty -2 -8 0 10 -262144
-1 -1 7100 1;
#X obj 789 284 / 127;
#X obj 741 170 *~ 0;
#X floatatom 943 -61 5 0 0 0 - - -;
#X floatatom 943 20 5 0 0 0 - - -;
#X obj 943 -8 int;
#X obj 940 77 osc~;
#X obj 943 -36 * 1000;
#X obj 968 48 *~ 0.35;
#X floatatom 997 180 0 0 120 0 - - -;
#X text 1038 180 level \, dB;
#X floatatom 1032 202 0 0 100 0 - - -;
#X text 1073 202 liveness \, 0-100;
#X floatatom 1067 226 4 0 5000 0 - - -;
#X floatatom 1102 249 0 0 100 0 - - -;
#X text 1115 224 crossover frequency \, Hz.;
#X text 1138 251 HF damping \, percent;
#X obj 927 275 rev3~ 100 90 3000 20;
#X text 1134 24 The creation arguments (level \, liveness \, crossover
frequency \, HF damping) may also be supplied in four inlets as shown.
The "liveness" (actually the internal feedback percentage) should be
100 for infinite reverb \, 90 for longish \, and 80 for short. The
crossover frequency and HF damping work together: at frequencies above
crossover \, the feedback is diminished by the "damping" as a percentage.
So zero HF damping means equal reverb time at all frequencies \, and
100% damping means almost nothing above the crossover frequency gets
through.;
#X text 866 -150 comment;
#X obj 944 -93 hsl 128 15 0 1 0 0 empty empty empty -2 -8 0 10 -262144
-1 -1 2000 1;
#X obj 909 673 hsl 128 15 0 127 0 0 empty empty empty -2 -8 0 10 -262144
-1 -1 12700 1;
#X obj 906 698 / 127;
#X obj 844 425 hsl 128 15 0 1 0 0 empty empty empty -2 -8 0 10 -262144
-1 -1 3200 1;
#X floatatom 1511 511 5 0 0 0 - - -;
#X obj 1511 538 == 1;
#X obj 1511 562 select 1;
#X obj 1394 452 expr $f1 \; if ($f1 > 0.1 \, 1 \, 0) \;;
#X floatatom 841 454 5 0 0 0 - - -;
#X floatatom 841 535 5 0 0 0 - - -;
#X obj 841 507 int;
#X obj 840 948 dac~;
#X floatatom 922 793 0 0 120 0 - - -;
#X text 963 793 level \, dB;
#X floatatom 957 815 0 0 100 0 - - -;
#X text 998 815 liveness \, 0-100;
#X floatatom 992 839 4 0 5000 0 - - -;
#X floatatom 1027 862 0 0 100 0 - - -;
#X text 1040 837 crossover frequency \, Hz.;
#X text 1063 864 HF damping \, percent;
#X obj 852 888 rev3~ 100 90 3000 20;
#X obj 841 595 osc~;
#X obj 859 655 *~;
#X obj 864 715 *~ 0;
#X obj 841 480 * 127;
#X obj 841 562 mtof;
#X obj 875 595 *~ 0.5;
#X obj 874 563 +~ 1;
#X floatatom 932 506 5 0 0 0 - - -;
#X obj 932 535 osc~;
#X obj 932 475 * 1000;
#X obj 965 448 random 2000;
#X connect 0 0 8 2;
#X connect 2 0 8 3;
#X connect 4 0 8 4;
#X connect 5 0 8 5;
#X connect 8 0 35 0;
#X connect 8 1 35 1;
#X connect 9 0 12 0;
#X connect 10 0 9 0;
#X connect 11 0 34 0;
#X connect 12 0 11 0;
#X connect 13 0 14 0;
#X connect 13 0 15 0;
#X connect 14 0 10 0;
#X connect 15 0 33 0;
#X connect 17 0 19 0;
#X connect 18 0 17 0;
#X connect 19 0 32 0;
#X connect 20 0 31 2;
#X connect 22 0 31 3;
#X connect 24 0 31 4;
#X connect 25 0 31 5;
#X connect 28 0 29 0;
#X connect 29 0 34 1;
#X connect 30 0 31 0;
#X connect 31 0 35 0;
#X connect 31 1 35 1;
#X connect 32 0 30 0;
#X connect 33 0 18 0;
#X connect 34 0 8 0;
#X connect 36 0 37 0;
#X connect 38 0 28 0;
#X connect 40 0 41 0;
#X connect 41 0 42 1;
#X connect 42 0 57 0;
#X connect 43 0 47 0;
#X connect 44 0 48 0;
#X connect 45 0 44 0;
#X connect 46 0 42 0;
#X connect 47 0 45 0;
#X connect 48 0 46 0;
#X connect 49 0 57 2;
#X connect 51 0 57 3;
#X connect 53 0 57 4;
#X connect 54 0 57 5;
#X connect 57 0 39 0;
#X connect 57 1 39 1;
#X connect 60 0 43 0;
#X connect 61 0 62 0;
#X connect 62 0 83 1;
#X connect 63 0 68 0;
#X connect 63 0 90 0;
#X connect 64 0 65 0;
#X connect 65 0 66 0;
#X connect 67 1 64 0;
#X connect 68 0 84 0;
#X connect 69 0 85 0;
#X connect 70 0 69 0;
#X connect 72 0 80 2;
#X connect 74 0 80 3;
#X connect 76 0 80 4;
#X connect 77 0 80 5;
#X connect 80 0 71 0;
#X connect 80 1 71 1;
#X connect 81 0 82 0;
#X connect 82 0 83 0;
#X connect 83 0 80 0;
#X connect 84 0 70 0;
#X connect 85 0 81 0;
#X connect 86 0 82 1;
#X connect 87 0 86 0;
#X connect 88 0 89 0;
#X connect 89 0 87 0;
#X connect 90 0 88 0;
#X connect 91 0 90 1;
