#N canvas 2097 183 939 677 10;
#X floatatom 4 -122 5 0 0 0 - - -;
#X obj 4 -203 inlet;
#X floatatom 4 -179 5 0 0 0 - - -;
#X obj 201 355 dac~;
#X obj 8 347 hsl 128 15 0 90 0 0 empty empty empty -2 -8 0 10 -262144
-1 -1 3300 1;
#X obj 75 304 / 127;
#X obj 27 190 *~ 0;
#X obj 4 -150 * 90;
#X floatatom 74 -73 5 0 0 0 - - -;
#X obj 74 -101 int;
#X obj 71 -16 osc~;
#X text 40 -205 a0 Potentiometer Volume Control;
#X obj 99 -45 *~ 0.35;
#X floatatom 283 200 0 0 120 0 - - -;
#X text 324 200 level \, dB;
#X floatatom 318 222 0 0 100 0 - - -;
#X text 359 222 liveness \, 0-100;
#X floatatom 353 246 4 0 5000 0 - - -;
#X floatatom 388 269 0 0 100 0 - - -;
#X text 401 244 crossover frequency \, Hz.;
#X text 424 271 HF damping \, percent;
#X obj 213 295 rev3~ 100 90 3000 20;
#X obj 77 -158 hsl 128 15 0 1 0 0 empty empty empty -2 -8 0 10 -262144
-1 -1 7100 1;
#X obj 74 -129 * 1500;
#X floatatom 314 -31 5 0 0 0 - - -;
#X obj 314 -59 int;
#X obj 311 26 osc~;
#X obj 339 -3 *~ 0.35;
#X obj 317 -112 hsl 128 15 0 1 0 0 empty empty empty -2 -8 0 10 -262144
-1 -1 2200 1;
#X obj 314 -87 * 1500;
#X obj 520 -242 hsl 128 15 0 1 0 0 empty empty empty -2 -8 0 10 -262144
-1 -1 0 1;
#X text 596 287;
#X text 541 -215 comment;
#X floatatom 517 -161 5 0 0 0 - - -;
#X obj 517 -189 int;
#X obj 542 -133 *~ 0.35;
#X floatatom 653 -171 0 0 120 0 - - -;
#X text 694 -171 level \, dB;
#X floatatom 688 -149 0 0 100 0 - - -;
#X text 729 -149 liveness \, 0-100;
#X floatatom 723 -125 4 0 5000 0 - - -;
#X floatatom 758 -102 0 0 100 0 - - -;
#X text 771 -127 crossover frequency \, Hz.;
#X text 794 -100 HF damping \, percent;
#X obj 496 88 hsl 128 15 0 90 0 0 empty empty empty -2 -8 0 10 -262144
-1 -1 0 1;
#X obj 563 45 / 127;
#X obj 515 -69 *~ 0;
#X obj 672 58 rev3~ 0 0 0 0;
#X obj 514 -104 osc~;
#X obj 517 -217 * 2200;
#X connect 0 0 4 0;
#X connect 1 0 2 0;
#X connect 2 0 7 0;
#X connect 4 0 5 0;
#X connect 5 0 6 1;
#X connect 6 0 21 0;
#X connect 7 0 0 0;
#X connect 8 0 12 0;
#X connect 9 0 8 0;
#X connect 10 0 6 0;
#X connect 12 0 10 0;
#X connect 13 0 21 2;
#X connect 15 0 21 3;
#X connect 17 0 21 4;
#X connect 18 0 21 5;
#X connect 21 0 3 0;
#X connect 21 1 3 1;
#X connect 22 0 23 0;
#X connect 23 0 9 0;
#X connect 24 0 27 0;
#X connect 25 0 24 0;
#X connect 26 0 48 0;
#X connect 27 0 26 0;
#X connect 28 0 29 0;
#X connect 29 0 25 0;
#X connect 30 0 49 0;
#X connect 30 0 28 0;
#X connect 33 0 35 0;
#X connect 34 0 33 0;
#X connect 35 0 48 0;
#X connect 36 0 47 2;
#X connect 38 0 47 3;
#X connect 40 0 47 4;
#X connect 41 0 47 5;
#X connect 44 0 45 0;
#X connect 45 0 46 1;
#X connect 46 0 47 0;
#X connect 47 0 3 0;
#X connect 48 0 46 0;
#X connect 49 0 34 0;
