#N canvas 0 22 450 300 10;
#X obj 229 85 tanh~;
#X obj 172 127 *~;
#X obj 111 164 +~;
#X obj 111 197 outlet~;
#X obj 111 84 sig~;
#X obj 172 85 sig~;
#X obj 111 49 inlet h;
#X obj 172 49 inlet k;
#X obj 229 49 inlet~ f;
#X connect 0 0 1 1;
#X connect 1 0 2 1;
#X connect 2 0 3 0;
#X connect 4 0 2 0;
#X connect 5 0 1 0;
#X connect 6 0 4 0;
#X connect 7 0 5 0;
#X connect 8 0 0 0;
