#N canvas 405 90 739 578 10;
#X msg 184 -1900 0.1;
#X msg 351 -1901 0.1;
#X msg 389 -1902 0.1;
#X msg 425 -1902 0.1;
#X msg 460 -1902 0.1;
#X msg 516 -1904 0.1;
#X obj 242 -2059 netreceive 3000;
#X msg 554 -1904 0.1;
#X obj 242 -2034 sel 1 2 3 4 5 6 7 8 9 10 11 12 13 14 15 16;
#N canvas 877 51 450 300 row1-synth 0;
#X obj 64 21 inlet;
#X obj 294 265 dac~;
#X obj 64 49 playwav-abstraction Kick_11.wav;
#X obj 162 87 inlet;
#X obj 279 24 inlet;
#X obj 372 83 inlet;
#X obj 162 115 playwav-abstraction 2_snare.wav;
#X obj 279 52 playwav-abstraction cymbal.wav;
#X obj 372 111 playwav-abstraction beats.wav;
#X connect 0 0 2 0;
#X connect 2 0 1 0;
#X connect 3 0 6 0;
#X connect 4 0 7 0;
#X connect 5 0 8 0;
#X connect 6 0 1 1;
#X connect 7 0 1 0;
#X connect 8 0 1 0;
#X restore 0 -1862 pd row1-synth add-to-length;
#N canvas 367 166 674 521 row2-synth 1;
#X obj 75 31 inlet;
#X obj 305 275 dac~;
#X obj 173 97 inlet;
#X obj 290 34 inlet;
#X obj 383 93 inlet;
#X obj 75 59 playwav-abstraction wobble.wav;
#X obj 173 125 playwav-abstraction danger.wav;
#X obj 290 62 playwav-abstraction earthquestion.wav;
#X obj 383 121 playwav-abstraction elect_vocal.wav;
#X connect 0 0 5 0;
#X connect 2 0 6 0;
#X connect 3 0 7 0;
#X connect 4 0 8 0;
#X connect 5 0 1 0;
#X connect 6 0 1 1;
#X connect 7 0 1 0;
#X connect 8 0 1 0;
#X restore 170 -1861 pd row2-synth add-to-length;
#X msg 253 -1901 0.4;
#X msg 217 -1900 0.3;
#X msg 289 -1900 0.15;
#N canvas 131 195 620 563 row3-synth 0;
#X obj 85 41 inlet;
#X obj 315 285 dac~;
#X obj 183 107 inlet;
#X obj 300 44 inlet;
#X obj 393 103 inlet;
#X obj 85 69 playwav-abstraction bassline.wav;
#X obj 183 135 playwav-abstraction stoner.wav;
#X obj 300 72 playwav-abstraction strings1.wav;
#X obj 393 131 playwav-abstraction rain2.wav;
#X connect 0 0 5 0;
#X connect 2 0 6 0;
#X connect 3 0 7 0;
#X connect 4 0 8 0;
#X connect 5 0 1 0;
#X connect 6 0 1 1;
#X connect 7 0 1 0;
#X connect 8 0 1 0;
#X restore 340 -1861 pd row3-synth add-to-length;
#N canvas 703 212 662 471 row4-synth 0;
#X obj 95 51 inlet;
#X obj 325 295 dac~;
#X obj 193 117 inlet;
#X obj 193 145 playwav-abstraction stoner.wav;
#X obj 299 53 inlet;
#X obj 397 119 inlet;
#X obj 299 80 playwav-abstraction Kick_11.wav;
#X obj 397 147 playwav-abstraction 2_snare.wav;
#X obj 95 79 playwav-abstraction beats.wav;
#X connect 0 0 8 0;
#X connect 2 0 3 0;
#X connect 3 0 1 1;
#X connect 4 0 6 0;
#X connect 5 0 7 0;
#X connect 6 0 1 0;
#X connect 7 0 1 1;
#X connect 8 0 1 0;
#X restore 511 -1861 pd row4-synth add-to-length;
#X msg 20 -1902 0.3;
#X msg 56 -1901 0.2;
#X msg 90 -1900 0.3;
#X msg 124 -1900 0.4;
#X msg 588 -1904 0.6;
#X msg 623 -1906 0.4;
#X connect 0 0 10 0;
#X connect 1 0 14 0;
#X connect 2 0 14 1;
#X connect 3 0 14 2;
#X connect 4 0 14 3;
#X connect 5 0 15 0;
#X connect 6 0 8 0;
#X connect 7 0 15 1;
#X connect 8 0 16 0;
#X connect 8 1 17 0;
#X connect 8 2 18 0;
#X connect 8 3 19 0;
#X connect 8 4 0 0;
#X connect 8 5 12 0;
#X connect 8 6 11 0;
#X connect 8 7 13 0;
#X connect 8 8 1 0;
#X connect 8 9 2 0;
#X connect 8 10 3 0;
#X connect 8 11 4 0;
#X connect 8 12 5 0;
#X connect 8 13 7 0;
#X connect 8 14 20 0;
#X connect 8 15 21 0;
#X connect 11 0 10 2;
#X connect 12 0 10 1;
#X connect 13 0 10 3;
#X connect 16 0 9 0;
#X connect 17 0 9 1;
#X connect 18 0 9 2;
#X connect 19 0 9 3;
#X connect 20 0 15 2;
#X connect 21 0 15 3;
