#N canvas 166 68 1044 674 36;
#N canvas 0 22 450 278 (subpatch) 0;
#X array wf11 11 float 1;
#A 0 0.85877 0.670463 0.482156 0.293849 0.0741582 -0.223994 -0.255379
-0.271071 -0.271071 -0.271071 -0.255379;
#X coords 0 1.02 10 -1.02 180 130 1;
#X restore 509 44 graph;
#X text 507 169 0;
#X text 671 169 10;
#X floatatom -298 61 5 0 10 0 - - -;
#X floatatom -297 172 5 0 0 0 - - -;
#X text 481 15 1;
#X text 461 144 -1;
#X text 569 166 ...;
#X text 480 56 .;
#X text 480 68 .;
#X text 481 80 .;
#X obj -298 115 tabread wf11;
#X obj -299 387 sig~;
#X floatatom -299 332 5 0 10 0 - - -;
#X obj -299 552 snapshot~;
#X obj 36 495 metro 30;
#X obj 36 473 tgl 15 0 empty empty empty 17 7 0 10 -262144 -1 -1 1
1;
#X obj 36 418 loadbang;
#X floatatom -299 608 5 0 0 0 - - -;
#X obj -299 443 tabread~ wf11;
#X text -300 4 tabread is for messages;
#X text -185 368 tabread4~ is for audio;
#X text 58 204 Right click and choose properties;
#X text 58 243 to change domain and range;
#X text 333 616 DSP needs to be on!;
#X connect 3 0 11 0;
#X connect 11 0 4 0;
#X connect 12 0 19 0;
#X connect 13 0 12 0;
#X connect 14 0 18 0;
#X connect 15 0 14 0;
#X connect 16 0 15 0;
#X connect 17 0 16 0;
#X connect 19 0 14 0;
