#N canvas 27 95 969 683 36;
#X obj -74 435 dac~;
#X obj -160 -75 cnv 15 150 75 empty empty empty 20 12 0 14 -159808
-66577 0;
#X text -140 -64 pitch;
#X text -134 1 A basic dimension of musical sounds \, in which;
#X text -136 37 they are perceived as high or low.;
#X obj -36 290 osc~;
#X floatatom -36 232 9 0 0 0 - - -;
#X text 173 230 Hz;
#X obj -36 175 mtof;
#X floatatom -36 119 5 20 100 0 - - -;
#X text 84 119 MIDI note number;
#X obj -36 360 *~ 0.04;
#X text -149 507 For harmonic sounds \, the pitch is the percept;
#X text -147 544 of the fundamental frequency.;
#X connect 5 0 11 0;
#X connect 6 0 5 0;
#X connect 8 0 6 0;
#X connect 9 0 8 0;
#X connect 11 0 0 0;
#X connect 11 0 0 1;
