#N canvas 116 91 775 513 36;
#X obj 209 -58 cnv 15 370 75 empty empty empty 20 12 0 14 -257985 -66577
0;
#X text 234 -49 octave ambiguity;
#X obj -144 -12 output~;
#X obj -118 -74 osc~ 200;
#X obj -60 57 output~;
#X obj -34 -5 osc~ 400;
#X obj 45 117 output~;
#X obj 71 55 osc~ 600;
#X obj 128 180 output~;
#X obj 154 118 osc~ 800;
#X obj 219 243 output~;
#X obj 245 181 osc~ 1000;
#X obj 311 305 output~;
#X obj 337 243 osc~ 1200;
#X text -147 367 Does this sound like 200Hz or 400Hz?;
#X connect 3 0 2 0;
#X connect 3 0 2 1;
#X connect 5 0 4 0;
#X connect 5 0 4 1;
#X connect 7 0 6 0;
#X connect 7 0 6 1;
#X connect 9 0 8 0;
#X connect 9 0 8 1;
#X connect 11 0 10 0;
#X connect 11 0 10 1;
#X connect 13 0 12 0;
#X connect 13 0 12 1;
