#N canvas 19 24 1063 608 36;
#X obj -216 -406 cnv 15 370 75 empty empty empty 20 12 0 14 -257985
-66577 0;
#X obj 38 111 s~ A;
#N canvas 554 162 829 450 g 0;
#X obj 69 65 cnv 15 200 200 empty empty empty 20 12 0 14 -262144 -66577
0;
#N canvas 0 22 400 257 (subpatch) 0;
#X array A 100 float 0;
#X coords 0 1 99 -1 200 200 1 0 0;
#X restore 0 0 graph;
#X obj 348 333 tabwrite~ A;
#X obj 310 210 loadbang;
#X obj 244 210 bng 45 250 50 0 empty empty empty 0 -6 0 8 -262144 -1
-1;
#X obj 244 335 s b;
#X obj 496 272 r~ A;
#X obj 244 269 metro 30;
#X connect 3 0 7 0;
#X connect 4 0 7 0;
#X connect 6 0 2 0;
#X connect 7 0 2 0;
#X connect 7 0 5 0;
#X coords 0 -1 1 1 200 200 2 0 0;
#X restore 377 -66 pd g;
#X obj -69 116 output~;
#X floatatom 156 -180 5 290 550 0 - - -;
#X obj 11 14 +~;
#X obj -122 -92 *~ 0.4;
#X obj 156 -65 *~ 0.4;
#X text -86 -396 beats;
#X text 204 -378 pitch \, then we hear beats.;
#X text 202 -414 If two pure tones are close in;
#X obj 156 -291 loadbang;
#X text 273 -180 Hz;
#X obj 156 -124 osc~ 424;
#X obj -122 -151 osc~ 424.5;
#X msg 156 -235 425;
#X connect 4 0 13 0;
#X connect 5 0 1 0;
#X connect 5 0 3 0;
#X connect 5 0 3 1;
#X connect 6 0 5 0;
#X connect 7 0 5 1;
#X connect 11 0 15 0;
#X connect 13 0 7 0;
#X connect 14 0 6 0;
#X connect 15 0 4 0;
