#N canvas 98 155 1203 539 36;
#X obj -201 -395 cnv 15 370 75 empty empty empty 20 12 0 14 -159808
-66577 0;
#X obj 141 74 s~ A;
#N canvas 554 162 829 450 g 0;
#X obj 69 65 cnv 15 200 200 empty empty empty 20 12 0 14 -262144 -66577
0;
#N canvas 0 22 400 257 (subpatch) 0;
#X array A 100 float 0;
#X coords 0 1 99 -1 200 200 1 0 0;
#X restore 0 0 graph;
#X obj 348 333 tabwrite~ A;
#X obj 310 210 loadbang;
#X obj 244 210 bng 45 250 50 0 empty empty empty 0 -6 0 8 -262144 -1
-1;
#X obj 244 335 s b;
#X obj 496 272 r~ A;
#X obj 244 269 metro 30;
#X connect 3 0 7 0;
#X connect 4 0 7 0;
#X connect 6 0 2 0;
#X connect 7 0 2 0;
#X connect 7 0 5 0;
#X coords 0 -1 1 1 200 200 2 0 0;
#X restore 731 -142 pd g;
#X obj 18 80 output~;
#X text -71 -385 timbre;
#X text 211 -405 The combination of qualities of a sound;
#X text 213 -365 that distinguishes it from other sounds;
#X text 215 -326 of the same pitch and loudness.;
#X floatatom -135 -224 5 0 3 0 - - -;
#X msg -135 -166 choice \$1;
#X obj 132 -170 smallgain~;
#X obj 430 -172 smallgain~;
#X obj 461 -42 smallgain~;
#X obj 70 -18 *~ 0.9;
#X msg -194 -292 0;
#X msg -107 -291 1;
#X msg -17 -290 2;
#X msg 71 -290 3;
#X obj 70 -80 polygate~ 3 10;
#X obj 132 -226 square~ 424;
#X obj 430 -227 phasor~ 424;
#X obj 461 -97 osc~ 424;
#X connect 8 0 9 0;
#X connect 9 0 18 0;
#X connect 10 0 18 0;
#X connect 11 0 18 1;
#X connect 12 0 18 2;
#X connect 13 0 1 0;
#X connect 13 0 3 0;
#X connect 13 0 3 1;
#X connect 14 0 8 0;
#X connect 15 0 8 0;
#X connect 16 0 8 0;
#X connect 17 0 8 0;
#X connect 18 0 13 0;
#X connect 19 0 10 0;
#X connect 20 0 11 0;
#X connect 21 0 12 0;
