#N canvas 157 41 993 664 36;
#X obj -647 524 dac~;
#X obj -622 49 playwav-abstraction-loop johnshort.wav;
#X obj -337 150 hsl 128 15 0 100 0 0 empty empty empty -2 -8 0 10 -262144
-1 -1 0 1;
#X obj -340 176 / 100;
#X floatatom -340 232 5 0 1 0 - - -;
#X obj -651 315 expr 1-$f1;
#X obj -528 441 *~;
#X obj -714 444 *~;
#X floatatom -651 373 5 0 0 0 - - -;
#X obj -622 105 *~ 0.15;
#X text -219 230 x;
#X text -531 370 1-x;
#X text -752 -79 Calculate the gain for the second speaker using;
#X text -752 -37 the function f(x)=1-x;
#X text -519 528 Note: This would be better with line~;
#X obj -351 384 cnv 15 550 75 empty empty empty 20 12 0 14 -257985
-66577 0;
#X text -323 393 simple amplitude panning;
#X text -203 127 Pan position;
#X connect 1 0 9 0;
#X connect 2 0 3 0;
#X connect 3 0 4 0;
#X connect 4 0 6 1;
#X connect 4 0 5 0;
#X connect 5 0 8 0;
#X connect 6 0 0 1;
#X connect 7 0 0 0;
#X connect 8 0 7 1;
#X connect 9 0 6 0;
#X connect 9 0 7 0;
