#N canvas 157 41 1148 665 36;
#X obj -564 527 dac~;
#X obj -621 17 playwav-abstraction-loop johnshort.wav;
#X obj -460 139 hsl 128 15 0 100 0 0 empty empty empty -2 -8 0 10 -262144
-1 -1 400 1;
#X obj -445 444 *~;
#X obj -714 444 *~;
#X obj -621 73 *~ 0.15;
#X obj -223 308 cnv 15 550 75 empty empty empty 20 12 0 14 -257985
-66577 0;
#X text -212 317 improved amplitude panning;
#X floatatom -651 275 5 0 0 0 - - -;
#X floatatom -651 388 5 0 0 0 - - -;
#X obj -651 331 cos;
#X floatatom -382 270 5 0 0 0 - - -;
#X floatatom -382 388 5 0 0 0 - - -;
#X obj -382 328 sin;
#X text -752 -79 Some listeners prefer sin and cos;
#X obj -463 170 / 63.662;
#X text -273 166 To get output into range [0 pi/2];
#X text -323 119 Pan position;
#X connect 1 0 5 0;
#X connect 2 0 15 0;
#X connect 3 0 0 1;
#X connect 4 0 0 0;
#X connect 5 0 3 0;
#X connect 5 0 4 0;
#X connect 8 0 10 0;
#X connect 9 0 4 1;
#X connect 10 0 9 0;
#X connect 11 0 13 0;
#X connect 12 0 3 1;
#X connect 13 0 12 0;
#X connect 15 0 11 0;
#X connect 15 0 8 0;
