#N canvas 157 41 993 664 36;
#X obj -647 524 dac~;
#X obj -622 49 playwav-abstraction-loop johnshort.wav;
#X obj -155 135 hsl 128 15 0 100 0 0 empty empty empty -2 -8 0 10 -262144
-1 -1 4300 1;
#X obj -158 156 / 100;
#X floatatom -158 212 5 0 1 0 - - -;
#X obj -528 441 *~;
#X obj -714 444 *~;
#X floatatom -651 373 5 0 0 0 - - -;
#X obj -622 105 *~ 0.15;
#X text -37 210 x;
#X text -531 370 1-x;
#X obj -370 454 cnv 15 550 75 empty empty empty 20 12 0 14 -257985
-66577 0;
#X text -357 463 improved amplitude panning;
#X obj -158 266 sqrt;
#X obj -651 315 expr sqrt(1-$f1);
#X text -752 -79 Using speakers in a room \, it won't get loud in;
#X text -752 -34 the middle if we square-root the amplitudes.;
#X text -18 114 Pan position;
#X connect 1 0 8 0;
#X connect 2 0 3 0;
#X connect 3 0 4 0;
#X connect 4 0 13 0;
#X connect 4 0 14 0;
#X connect 5 0 0 1;
#X connect 6 0 0 0;
#X connect 7 0 6 1;
#X connect 8 0 5 0;
#X connect 8 0 6 0;
#X connect 13 0 5 1;
#X connect 14 0 7 0;
