#N canvas 1595 131 1172 737 36;
#X obj -688 506 dac~;
#X obj -738 -160 cnv 15 550 75 empty empty empty 20 12 0 14 -257985
-66577 0;
#X obj -592 7 playwav-abstraction dry-voice.wav;
#X text -710 -151 artificial reverberation;
#X floatatom -373 199 0 0 120 0 - - -;
#X floatatom -285 253 0 0 100 0 - - -;
#X floatatom -198 309 5 0 5000 0 - - -;
#X floatatom -110 366 0 0 100 0 - - -;
#X obj -547 421 rev3~ 100 90 3000 20;
#X obj -738 81 playwav-abstraction StilleNacht.wav;
#X msg -738 21 0.15;
#X text -27 365 % -- HF damping;
#X obj -655 161 +~;
#X msg -592 -53 0.2;
#X text -174 -169 Does everything really sound;
#X text -172 -131 better with reverb?;
#X obj 207 57 loadbang;
#X msg 207 113 0;
#X text -296 200 dB -- Level;
#X text -81 305 Hz -- Crossover frequency;
#X text -207 254 0-100 -- Liveness;
#X connect 2 0 12 1;
#X connect 4 0 8 2;
#X connect 5 0 8 3;
#X connect 6 0 8 4;
#X connect 7 0 8 5;
#X connect 8 0 0 0;
#X connect 8 1 0 1;
#X connect 9 0 12 0;
#X connect 10 0 9 0;
#X connect 12 0 0 0;
#X connect 12 0 0 1;
#X connect 12 0 8 0;
#X connect 13 0 2 0;
#X connect 16 0 17 0;
#X connect 17 0 4 0;
