#N canvas 0 22 735 509 10;
#X obj 103 122 hsl 42 23 0.01 1 1 0 \$0-v \$0-v volume 7 13 1 9 -245500
-13381 -1 0 0;
#X obj 211 22 inlet~;
#X obj 96 293 line~;
#X obj 196 353 *~;
#X text 223 42 audio in;
#X obj 22 308 send pd;
#X msg 22 287 dsp 1;
#X obj 96 272 pack 0 50;
#X text 163 271 <-- make a ramp to avoid clicks or zipper noise;
#X msg 96 237 0;
#X obj 96 214 moses 0.011;
#X obj 216 383 outlet~;
#X connect 0 0 6 0;
#X connect 0 0 10 0;
#X connect 1 0 3 1;
#X connect 2 0 3 0;
#X connect 3 0 11 0;
#X connect 6 0 5 0;
#X connect 7 0 2 0;
#X connect 9 0 7 0;
#X connect 10 0 9 0;
#X connect 10 1 7 0;
#X coords 0 -1 1 1 66 45 1 100 100;
