#N canvas 171 34 677 463 12;
#X obj 81 78 coll;
#C flags 1 0;
#C 0 48 55 58 62 63;
#C 1 49 56 60 63 65;
#C 2 50 56 60 65 67;
#C 3 51 58 62 65 67;
#C 4 40 55 58 60 61;
#C 5 41 51 55 56 60;
#C 6 42 51 57 60 62;
#C 7 43 53 56 59 62;
#C 8 44 51 55 60 62;
#C 9 45 53 60 63 67;
#C 10 46 56 60 62 65;
#C 11 47 56 62 65 67;
#C restore;
#X msg 154 51 flags 1 0;
#X obj 154 27 loadbang;
#X text 229 9 This part of the patch makes it so that the contents
of the "coll" object are stored within the patch. That way \, if you
change the "coll \, " modify the patch \, save the patch \, and then
reopen the patch \, your updated "coll" contents will still be there.
;
#X obj 96 108 print cameoutofcoll;
#X obj 23 20 bng 45 250 50 0 empty empty empty 17 7 0 10 -262144 -1
-1;
#X obj 81 139 unpack 0 0 0 0;
#X obj 81 -59 bng 15 250 50 0 empty empty empty 17 7 0 10 -262144 -1
-1;
#X floatatom 81 -4 5 0 0 0 - - -;
#X obj 81 -29 counter 0 0 11;
#X obj 81 -86 metro 1000;
#X obj 81 -134 tgl 40 0 empty empty empty 17 7 0 10 -262144 -1 -1 0
1;
#N canvas 818 517 618 284 this-synth 0;
#N canvas 800 211 344 401 another-synth 0;
#X obj -94 6 inlet;
#X obj -47 62 mtof;
#X obj -47 134 osc~;
#X obj 13 107 *~ 3;
#X obj 13 133 osc~;
#X obj 83 133 osc~;
#X obj 83 107 *~ 5;
#X obj -65 174 *~;
#X obj -94 33 t b b f;
#X obj -112 135 line~;
#X msg -96 77 1 15;
#X obj -172 77 delay 15;
#X obj -67 221 *~;
#X obj 41 210 random 100;
#X obj 40 185 loadbang;
#X obj 41 236 / 100;
#X obj 41 263 + 1;
#X floatatom 41 289 5 0 0 0 - - -;
#X obj 39 314 osc~;
#X obj 40 367 +~ 1;
#X obj -67 338 outlet~;
#X obj 40 339 *~ 0.4;
#X msg -172 103 0 700;
#X obj -67 311 *~ 0.04;
#X connect 0 0 8 0;
#X connect 1 0 2 0;
#X connect 1 0 3 0;
#X connect 1 0 6 0;
#X connect 2 0 7 1;
#X connect 3 0 4 0;
#X connect 4 0 7 1;
#X connect 5 0 7 1;
#X connect 6 0 5 0;
#X connect 7 0 12 0;
#X connect 8 0 11 0;
#X connect 8 1 10 0;
#X connect 8 2 1 0;
#X connect 9 0 7 0;
#X connect 10 0 9 0;
#X connect 11 0 22 0;
#X connect 12 0 23 0;
#X connect 13 0 15 0;
#X connect 14 0 13 0;
#X connect 15 0 16 0;
#X connect 16 0 17 0;
#X connect 17 0 18 0;
#X connect 18 0 21 0;
#X connect 19 0 12 1;
#X connect 21 0 19 0;
#X connect 22 0 9 0;
#X connect 23 0 20 0;
#X restore 22 57 pd another-synth;
#X obj 22 11 inlet;
#X obj 19 137 dac~;
#N canvas 800 211 344 401 another-synth 0;
#X obj -94 6 inlet;
#X obj -47 62 mtof;
#X obj -47 134 osc~;
#X obj 13 107 *~ 3;
#X obj 13 133 osc~;
#X obj 83 133 osc~;
#X obj 83 107 *~ 5;
#X obj -65 174 *~;
#X obj -94 33 t b b f;
#X obj -112 135 line~;
#X msg -96 77 1 15;
#X obj -172 77 delay 15;
#X obj -67 221 *~;
#X obj 41 210 random 100;
#X obj 40 185 loadbang;
#X obj 41 236 / 100;
#X obj 41 263 + 1;
#X floatatom 41 289 5 0 0 0 - - -;
#X obj 39 314 osc~;
#X obj 40 367 +~ 1;
#X obj -67 338 outlet~;
#X obj 40 339 *~ 0.4;
#X msg -172 103 0 700;
#X obj -67 311 *~ 0.04;
#X connect 0 0 8 0;
#X connect 1 0 2 0;
#X connect 1 0 3 0;
#X connect 1 0 6 0;
#X connect 2 0 7 1;
#X connect 3 0 4 0;
#X connect 4 0 7 1;
#X connect 5 0 7 1;
#X connect 6 0 5 0;
#X connect 7 0 12 0;
#X connect 8 0 11 0;
#X connect 8 1 10 0;
#X connect 8 2 1 0;
#X connect 9 0 7 0;
#X connect 10 0 9 0;
#X connect 11 0 22 0;
#X connect 12 0 23 0;
#X connect 13 0 15 0;
#X connect 14 0 13 0;
#X connect 15 0 16 0;
#X connect 16 0 17 0;
#X connect 17 0 18 0;
#X connect 18 0 21 0;
#X connect 19 0 12 1;
#X connect 21 0 19 0;
#X connect 22 0 9 0;
#X connect 23 0 20 0;
#X restore 166 57 pd another-synth;
#X obj 166 11 inlet;
#N canvas 800 211 344 401 another-synth 0;
#X obj -94 6 inlet;
#X obj -47 62 mtof;
#X obj -47 134 osc~;
#X obj 13 107 *~ 3;
#X obj 13 133 osc~;
#X obj 83 133 osc~;
#X obj 83 107 *~ 5;
#X obj -65 174 *~;
#X obj -94 33 t b b f;
#X obj -112 135 line~;
#X msg -96 77 1 15;
#X obj -172 77 delay 15;
#X obj -67 221 *~;
#X obj 41 210 random 100;
#X obj 40 185 loadbang;
#X obj 41 236 / 100;
#X obj 41 263 + 1;
#X floatatom 41 289 5 0 0 0 - - -;
#X obj 39 314 osc~;
#X obj 40 367 +~ 1;
#X obj -67 338 outlet~;
#X obj 40 339 *~ 0.4;
#X msg -172 103 0 700;
#X obj -67 311 *~ 0.04;
#X connect 0 0 8 0;
#X connect 1 0 2 0;
#X connect 1 0 3 0;
#X connect 1 0 6 0;
#X connect 2 0 7 1;
#X connect 3 0 4 0;
#X connect 4 0 7 1;
#X connect 5 0 7 1;
#X connect 6 0 5 0;
#X connect 7 0 12 0;
#X connect 8 0 11 0;
#X connect 8 1 10 0;
#X connect 8 2 1 0;
#X connect 9 0 7 0;
#X connect 10 0 9 0;
#X connect 11 0 22 0;
#X connect 12 0 23 0;
#X connect 13 0 15 0;
#X connect 14 0 13 0;
#X connect 15 0 16 0;
#X connect 16 0 17 0;
#X connect 17 0 18 0;
#X connect 18 0 21 0;
#X connect 19 0 12 1;
#X connect 21 0 19 0;
#X connect 22 0 9 0;
#X connect 23 0 20 0;
#X restore 325 54 pd another-synth;
#X obj 325 8 inlet;
#N canvas 800 211 344 401 another-synth 0;
#X obj -94 6 inlet;
#X obj -47 62 mtof;
#X obj -47 134 osc~;
#X obj 13 107 *~ 3;
#X obj 13 133 osc~;
#X obj 83 133 osc~;
#X obj 83 107 *~ 5;
#X obj -65 174 *~;
#X obj -94 33 t b b f;
#X obj -112 135 line~;
#X msg -96 77 1 15;
#X obj -172 77 delay 15;
#X obj -67 221 *~;
#X obj 41 210 random 100;
#X obj 40 185 loadbang;
#X obj 41 236 / 100;
#X obj 41 263 + 1;
#X floatatom 41 289 5 0 0 0 - - -;
#X obj 39 314 osc~;
#X obj 40 367 +~ 1;
#X obj -67 338 outlet~;
#X obj 40 339 *~ 0.4;
#X msg -172 103 0 700;
#X obj -67 311 *~ 0.04;
#X connect 0 0 8 0;
#X connect 1 0 2 0;
#X connect 1 0 3 0;
#X connect 1 0 6 0;
#X connect 2 0 7 1;
#X connect 3 0 4 0;
#X connect 4 0 7 1;
#X connect 5 0 7 1;
#X connect 6 0 5 0;
#X connect 7 0 12 0;
#X connect 8 0 11 0;
#X connect 8 1 10 0;
#X connect 8 2 1 0;
#X connect 9 0 7 0;
#X connect 10 0 9 0;
#X connect 11 0 22 0;
#X connect 12 0 23 0;
#X connect 13 0 15 0;
#X connect 14 0 13 0;
#X connect 15 0 16 0;
#X connect 16 0 17 0;
#X connect 17 0 18 0;
#X connect 18 0 21 0;
#X connect 19 0 12 1;
#X connect 21 0 19 0;
#X connect 22 0 9 0;
#X connect 23 0 20 0;
#X restore 469 54 pd another-synth;
#X obj 469 8 inlet;
#X connect 0 0 2 0;
#X connect 1 0 0 0;
#X connect 3 0 2 0;
#X connect 4 0 3 0;
#X connect 5 0 2 1;
#X connect 6 0 5 0;
#X connect 7 0 2 1;
#X connect 8 0 7 0;
#X restore 155 275 pd this-synth;
#X floatatom 174 165 5 0 0 0 - - -;
#X floatatom 147 186 5 0 0 0 - - -;
#X floatatom 114 209 5 0 0 0 - - -;
#X floatatom 83 232 5 0 0 0 - - -;
#X text 229 190 <-- Some MIDI note numbers ...;
#X connect 0 0 4 0;
#X connect 0 0 6 0;
#X connect 1 0 0 0;
#X connect 2 0 1 0;
#X connect 5 0 0 0;
#X connect 6 0 16 0;
#X connect 6 1 15 0;
#X connect 6 2 14 0;
#X connect 6 3 13 0;
#X connect 7 0 9 0;
#X connect 8 0 0 0;
#X connect 9 0 8 0;
#X connect 10 0 7 0;
#X connect 11 0 10 0;
#X connect 13 0 12 3;
#X connect 14 0 12 2;
#X connect 15 0 12 1;
#X connect 16 0 12 0;
