#N canvas 130 33 1080 754 12;
#X msg 29 413 0.1;
#X msg 75 426 0.1;
#X msg 86 392 0.1;
#X msg 118 420 0.1;
#X msg 138 394 0.1;
#X msg 162 420 0.1;
#X msg 189 398 0.1;
#X msg 217 418 0.1;
#X floatatom 555 386 5 20 300 0 - - -;
#X text 591 385 <-- Try numbers between 50 and 80;
#X text 3 351 Send bang to these messages or send "volume" gains to
the corresponding inlets to my-synth ...;
#N canvas 344 226 1440 456 my-synth 0;
#X obj 8 9 inlet;
#X obj 105 65 inlet;
#X obj 198 4 inlet;
#X obj 295 64 inlet;
#X obj 851 350 dac~;
#X obj 423 15 inlet;
#X obj 555 92 inlet;
#X obj 699 11 inlet;
#X obj 828 65 inlet;
#X obj 1516 231 inlet;
#N canvas 416 379 450 300 osc-synth 0;
#X obj 64 16 inlet;
#X obj 121 264 outlet~;
#X obj 133 82 mtof;
#X obj 133 129 phasor~;
#X obj 88 56 t b b f;
#X obj 78 154 line~;
#X obj 119 180 *~;
#X msg 95 105 1 15;
#X obj 17 98 delay 15;
#X msg 35 129 0 40;
#X obj 118 209 onepole~ 1500 Hz.;
#X obj 121 241 *~ 0.022;
#X connect 0 0 4 0;
#X connect 2 0 3 0;
#X connect 3 0 6 1;
#X connect 4 0 8 0;
#X connect 4 1 7 0;
#X connect 4 2 2 0;
#X connect 5 0 6 0;
#X connect 6 0 10 0;
#X connect 7 0 5 0;
#X connect 8 0 9 0;
#X connect 9 0 5 0;
#X connect 10 0 11 0;
#X connect 11 0 1 0;
#X restore 1516 256 pd osc-synth;
#X obj 8 31 playwav-abstraction gbell-1-1-pp.wav;
#X obj 105 88 playwav-abstraction gbell-1-2-pp.wav;
#X obj 198 28 playwav-abstraction gbell-2-1-pp.wav;
#X obj 295 86 playwav-abstraction gbell-2-2-pp.wav;
#X obj 423 37 playwav-abstraction gbell-3-1-pp.wav;
#X obj 555 115 playwav-abstraction gbell-3-2-pp.wav;
#X obj 699 35 playwav-abstraction gbell-4-1-pp.wav;
#X obj 828 87 playwav-abstraction gbell-4-2-pp.wav;
#X obj 1047 -21 inlet;
#X obj 1166 125 inlet;
#X obj 1267 32 inlet;
#X obj 1364 92 inlet;
#X obj 1492 43 inlet;
#X obj 1047 1 playwav-abstraction gbell-5-1-pp.wav;
#X obj 1166 148 playwav-abstraction gbell-5-2-pp.wav;
#X obj 1267 56 playwav-abstraction gbell-6-1-pp.wav;
#X obj 1364 114 playwav-abstraction gbell-6-2-pp.wav;
#X obj 1492 65 playwav-abstraction gbell-9-2-pp.wav;
#X connect 0 0 11 0;
#X connect 1 0 12 0;
#X connect 2 0 13 0;
#X connect 3 0 14 0;
#X connect 5 0 15 0;
#X connect 6 0 16 0;
#X connect 7 0 17 0;
#X connect 8 0 18 0;
#X connect 9 0 10 0;
#X connect 10 0 4 1;
#X connect 10 0 4 0;
#X connect 11 0 4 0;
#X connect 12 0 4 1;
#X connect 13 0 4 0;
#X connect 14 0 4 1;
#X connect 15 0 4 0;
#X connect 16 0 4 1;
#X connect 17 0 4 0;
#X connect 18 0 4 1;
#X connect 19 0 24 0;
#X connect 20 0 25 0;
#X connect 21 0 26 0;
#X connect 22 0 27 0;
#X connect 23 0 28 0;
#X connect 24 0 4 0;
#X connect 25 0 4 1;
#X connect 26 0 4 0;
#X connect 27 0 4 1;
#X connect 28 0 4 0;
#X restore 110 489 pd my-synth just-make-this-object-look-longer;
#X msg 250 387 0.1;
#X msg 280 422 0.1;
#X msg 299 384 0.1;
#X msg 317 419 0.1;
#X msg 365 387 0.1;
#X obj 252 117 bng 50 250 50 0 empty empty empty 17 7 0 10 -262144
-1 -1;
#X obj 238 24 tgl 50 0 empty empty empty 17 7 0 10 -262144 -1 -1 1
1;
#X obj 481 139 bng 50 250 50 0 empty empty empty 17 7 0 10 -262144
-1 -1;
#X obj 481 48 tgl 50 0 empty empty empty 17 7 0 10 -262144 -1 -1 1
1;
#X obj 238 87 metro 400;
#X obj 481 108 metro 420;
#X obj 101 182 bng 50 250 50 0 empty empty empty 17 7 0 10 -262144
-1 -1;
#X obj 70 86 tgl 50 0 empty empty empty 17 7 0 10 -262144 -1 -1 1 1
;
#X obj 70 152 metro 800;
#X connect 0 0 11 0;
#X connect 1 0 11 1;
#X connect 2 0 11 2;
#X connect 3 0 11 3;
#X connect 4 0 11 4;
#X connect 5 0 11 5;
#X connect 6 0 11 6;
#X connect 7 0 11 7;
#X connect 8 0 11 13;
#X connect 12 0 11 8;
#X connect 13 0 11 9;
#X connect 14 0 11 10;
#X connect 15 0 11 11;
#X connect 16 0 11 12;
#X connect 18 0 21 0;
#X connect 19 0 16 0;
#X connect 20 0 22 0;
#X connect 21 0 12 0;
#X connect 21 0 17 0;
#X connect 22 0 19 0;
#X connect 24 0 25 0;
#X connect 25 0 23 0;
#X connect 25 0 4 0;
