#N canvas 185 92 944 486 24;
#X obj -69 107 metro 1000;
#X obj -69 145 t b b b;
#X obj -69 36 tgl 30 0 empty empty empty 0 -6 0 8 -262144 -1 -1 1 1
;
#X obj 144 40 hsl 128 30 0 1000 0 0 empty empty empty -2 -6 0 8 -62784
-1 -1 2100 1;
#X obj -19 265 t b b;
#X obj 147 306 random 100;
#X obj 147 352 / 400;
#X obj 147 392 + 0.75;
#X obj 31 184 random 1000;
#X obj 141 97 / 2;
#X obj -19 221 delay 1000;
#X obj -69 448 kastro~;
#X text -28 36 start/stop;
#X text 155 7 speed;
#X text -218 429 karplus strong;
#X text -155 452 synth;
#X text 222 390 <-damping (0-1);
#X obj -19 307 random 100;
#X obj -19 412 + 10;
#X obj -19 379 / 5;
#X obj 161 220 hsl 128 30 0 100 0 0 empty empty empty -2 -6 0 8 -250685
-1 -1 3400 1;
#X text 175 194 width;
#X obj -19 344 - 200;
#X obj 80 264 / 2;
#X floatatom 201 88 5 0 0 0 - - -;
#X obj 529 323 s pd;
#X msg 529 289 dsp 1;
#X obj 529 215 loadbang;
#X obj 529 253 delay 4000;
#X text 428 182 To automatically turn on DSP:;
#X connect 0 0 1 0;
#X connect 1 0 11 0;
#X connect 1 1 10 0;
#X connect 1 2 8 0;
#X connect 2 0 0 0;
#X connect 3 0 0 1;
#X connect 3 0 9 0;
#X connect 3 0 24 0;
#X connect 4 0 17 0;
#X connect 4 1 5 0;
#X connect 5 0 6 0;
#X connect 6 0 7 0;
#X connect 7 0 11 2;
#X connect 8 0 10 1;
#X connect 9 0 8 1;
#X connect 10 0 4 0;
#X connect 17 0 22 0;
#X connect 18 0 11 1;
#X connect 19 0 18 0;
#X connect 20 0 17 1;
#X connect 20 0 23 0;
#X connect 22 0 19 0;
#X connect 23 0 22 1;
#X connect 26 0 25 0;
#X connect 27 0 28 0;
#X connect 28 0 26 0;
