#N canvas 114 113 1254 705 36;
#X text 28 -64 Harmonic tones have partial frequencies that;
#X text 27 -25 are approximately integer multiples of the;
#X text 27 18 fundamental frequency.;
#X obj 50 91 as-abstraction-random~;
#X obj 50 148 as-abstraction-random~;
#X obj 50 201 as-abstraction-random~;
#X obj 50 258 as-abstraction-random~;
#X obj 50 310 as-abstraction-random~;
#X obj 50 367 as-abstraction-random~;
#X obj 50 420 as-abstraction-random~;
#X obj 50 477 as-abstraction-random~;
#X obj 584 89 as-abstraction-random~;
#X obj 584 146 as-abstraction-random~;
#X obj 584 199 as-abstraction-random~;
#X obj 584 256 as-abstraction-random~;
#X obj 584 308 as-abstraction-random~;
#X obj 584 365 as-abstraction-random~;
#X obj 584 418 as-abstraction-random~;
#X obj 584 475 as-abstraction-random~;
#X obj 52 549 as-abstraction-random~;
#X obj 52 606 as-abstraction-random~;
#X obj 52 659 as-abstraction-random~;
#X obj 52 716 as-abstraction-random~;
#X obj 52 768 as-abstraction-random~;
#X obj 52 825 as-abstraction-random~;
#X obj 52 878 as-abstraction-random~;
#X obj 52 935 as-abstraction-random~;
#X obj 586 547 as-abstraction-random~;
#X obj 586 604 as-abstraction-random~;
#X obj 586 657 as-abstraction-random~;
#X obj 586 714 as-abstraction-random~;
#X obj 586 766 as-abstraction-random~;
#X obj 586 823 as-abstraction-random~;
#X obj 586 876 as-abstraction-random~;
#X obj 586 933 as-abstraction-random~;
#X obj 52 1010 as-abstraction-random~;
#X obj 52 1067 as-abstraction-random~;
#X obj 52 1120 as-abstraction-random~;
#X obj 52 1177 as-abstraction-random~;
#X obj 52 1229 as-abstraction-random~;
#X obj 52 1286 as-abstraction-random~;
#X obj 52 1339 as-abstraction-random~;
#X obj 52 1396 as-abstraction-random~;
#X obj 586 1008 as-abstraction-random~;
#X obj 586 1065 as-abstraction-random~;
#X obj 586 1118 as-abstraction-random~;
#X obj 586 1175 as-abstraction-random~;
#X obj 586 1227 as-abstraction-random~;
#X obj 586 1284 as-abstraction-random~;
#X obj 586 1337 as-abstraction-random~;
#X obj 586 1394 as-abstraction-random~;
#X obj 51 1466 as-abstraction-random~;
#X obj 51 1523 as-abstraction-random~;
#X obj 51 1576 as-abstraction-random~;
#X obj 51 1633 as-abstraction-random~;
#X obj 51 1685 as-abstraction-random~;
#X obj 51 1742 as-abstraction-random~;
#X obj 51 1795 as-abstraction-random~;
#X obj 51 1852 as-abstraction-random~;
#X obj 585 1464 as-abstraction-random~;
#X obj 585 1521 as-abstraction-random~;
#X obj 585 1574 as-abstraction-random~;
#X obj 585 1631 as-abstraction-random~;
#X obj 585 1683 as-abstraction-random~;
#X obj 585 1740 as-abstraction-random~;
#X obj 585 1793 as-abstraction-random~;
#X obj 585 1850 as-abstraction-random~;
#X obj 53 1924 as-abstraction-random~;
#X obj 53 1981 as-abstraction-random~;
#X obj 53 2034 as-abstraction-random~;
#X obj 53 2091 as-abstraction-random~;
#X obj 53 2143 as-abstraction-random~;
#X obj 53 2200 as-abstraction-random~;
#X obj 53 2253 as-abstraction-random~;
#X obj 53 2310 as-abstraction-random~;
#X obj 587 1922 as-abstraction-random~;
#X obj 587 1979 as-abstraction-random~;
#X obj 587 2032 as-abstraction-random~;
#X obj 587 2089 as-abstraction-random~;
#X obj 587 2141 as-abstraction-random~;
#X obj 587 2198 as-abstraction-random~;
#X obj 587 2251 as-abstraction-random~;
#X obj 587 2308 as-abstraction-random~;
#X obj 53 2385 as-abstraction-random~;
#X obj 53 2442 as-abstraction-random~;
#X obj 53 2495 as-abstraction-random~;
#X obj 53 2552 as-abstraction-random~;
#X obj 53 2604 as-abstraction-random~;
#X obj 53 2661 as-abstraction-random~;
#X obj 53 2714 as-abstraction-random~;
#X obj 53 2771 as-abstraction-random~;
#X obj 587 2383 as-abstraction-random~;
#X obj 587 2440 as-abstraction-random~;
#X obj 587 2493 as-abstraction-random~;
#X obj 587 2550 as-abstraction-random~;
#X obj 587 2602 as-abstraction-random~;
#X obj 587 2659 as-abstraction-random~;
#X obj 587 2712 as-abstraction-random~;
#X obj 587 2769 as-abstraction-random~;
