#N canvas 114 113 926 666 36;
#X obj 36 262 as-abstraction~;
#X floatatom 33 190 5 0 0 0 - - -;
#X obj 496 256 as-abstraction~;
#X floatatom 493 184 5 0 0 0 - - -;
#X obj 501 521 as-abstraction~;
#X floatatom 498 449 5 0 0 0 - - -;
#X obj 43 539 as-abstraction~;
#X floatatom 40 467 5 0 0 0 - - -;
#X text 154 146 Fundamental;
#X text 164 191 frequency;
#X text 28 -64 Harmonic tones have partial frequencies that;
#X text 27 -25 are approximately integer multiples of the;
#X text 27 18 fundamental frequency.;
#X obj 489 114 * 2;
#X obj 41 412 * 3;
#X obj 499 386 * 4;
#X connect 1 0 0 0;
#X connect 1 0 13 0;
#X connect 1 0 14 0;
#X connect 1 0 15 0;
#X connect 3 0 2 0;
#X connect 5 0 4 0;
#X connect 7 0 6 0;
#X connect 13 0 3 0;
#X connect 14 0 7 0;
#X connect 15 0 5 0;
