#N canvas 114 113 1035 666 36;
#X obj 37 174 as-abstraction~;
#X floatatom 34 102 5 0 0 0 - - -;
#X obj 497 168 as-abstraction~;
#X floatatom 494 96 5 0 0 0 - - -;
#X obj 502 433 as-abstraction~;
#X floatatom 499 361 5 0 0 0 - - -;
#X obj 44 451 as-abstraction~;
#X floatatom 41 379 5 0 0 0 - - -;
#X text 155 58 Fundamental;
#X text 165 103 frequency;
#X obj 492 25 * 1.7;
#X obj 42 324 * 2.2;
#X obj 500 298 * 3.6;
#X text 28 -64 Inharmonic tones sound less natural;
#X connect 1 0 0 0;
#X connect 1 0 10 0;
#X connect 1 0 11 0;
#X connect 1 0 12 0;
#X connect 3 0 2 0;
#X connect 5 0 4 0;
#X connect 7 0 6 0;
#X connect 10 0 3 0;
#X connect 11 0 7 0;
#X connect 12 0 5 0;
