#N canvas 149 47 1202 775 36;
#X obj 137 626 dac~;
#X obj 139 128 loadbang;
#X obj 140 310 mtof;
#X floatatom 139 374 5 0 0 0 - - -;
#X obj 140 438 osc~;
#X obj 139 255 + 13;
#X obj 140 189 random 100;
#X obj 141 522 *~ 0.005;
#X text 27 5 Here the integer MIDI note number is chosen randomly and
then converted to frequency.;
#X text 56 705 One pure tone/sinusoid for additive synthesis;
#X connect 1 0 6 0;
#X connect 2 0 3 0;
#X connect 3 0 4 0;
#X connect 4 0 7 0;
#X connect 5 0 2 0;
#X connect 6 0 5 0;
#X connect 7 0 0 0;
#X connect 7 0 0 1;
