#N canvas 0 22 707 581 24;
#X obj 18 538 dac~;
#X obj 38 490 *~;
#X obj 77 452 line~;
#X msg 77 416 \$1 50;
#X obj 132 219 cnv 15 550 75 empty empty empty 20 12 0 14 -101905 -66577
0;
#X floatatom 38 104 5 0 0 0 - - -;
#X floatatom 170 71 5 0 0 0 - - -;
#X obj 170 109 osc~;
#X obj 170 165 *~;
#X floatatom 429 89 5 0 0 0 - - -;
#X text 182 41 Frequency;
#X text 420 14 Modulation;
#X text 419 38 Amplitude;
#X text 19 63 Frequency;
#X obj 77 381 / 127;
#X text 88 331 Level;
#X text 22 40 Carrier;
#X obj 38 262 osc~;
#X obj 38 216 +~;
#X text 181 15 Modulation;
#X text 142 220 oscillate at a frequency of;
#X text 146 250 f_c + modulator signal;
#X text 418 61 (Index);
#X obj 38 151 sig~;
#X obj 80 358 hsl 128 15 0 127 0 0 empty empty empty -2 -8 0 10 -262144
-1 -1 0 1;
#X connect 1 0 0 0;
#X connect 1 0 0 1;
#X connect 2 0 1 1;
#X connect 3 0 2 0;
#X connect 5 0 23 0;
#X connect 6 0 7 0;
#X connect 7 0 8 0;
#X connect 8 0 18 1;
#X connect 9 0 8 1;
#X connect 14 0 3 0;
#X connect 17 0 1 0;
#X connect 18 0 17 0;
#X connect 23 0 18 0;
#X connect 24 0 14 0;
