#N canvas 36 42 598 275 24;
#X obj 21 19 cnv 15 550 75 empty empty empty 20 12 0 14 -101905 -66577
0;
#X obj 389 157 pink~;
#X obj 359 208 output~;
#X obj 156 209 output~;
#X obj 187 162 noise~;
#X text 393 108 Pink;
#X text 393 128 noise;
#X text 193 116 White;
#X text 193 134 noise;
#X text 25 23 White noise has an equal amount of energy at all frequencies.
Pink noise is "less random" and has more energy at lower frequencies.
;
#X connect 1 0 2 0;
#X connect 1 0 2 1;
#X connect 4 0 3 0;
#X connect 4 0 3 1;
