#N canvas 81 45 1305 749 24;
#X obj 466 80 cnv 15 550 75 empty empty empty 20 12 0 14 -101905 -66577
0;
#X floatatom 769 414 7 25 110 0 - - -;
#X obj 769 448 mtof;
#X floatatom 769 483 9 0 22000 0 - - -;
#X text 874 483 Hz;
#X floatatom 885 559 5 2 9999 0 - - -;
#X text 950 557 ms;
#X floatatom 827 525 4 4 50 0 - - -;
#X obj 712 593 bpq2~ 440 20 200;
#X obj 83 390 lop~ 500;
#X floatatom 168 357 10 20 20000 0 - - -;
#X text 283 357 Hz;
#X obj 168 323 mtof;
#X floatatom 168 291 5 18 130 0 - - -;
#X text 227 291 MIDI note num;
#X obj 47 463 output~;
#X obj 13 28 noise~;
#X obj 34 337 r~ testsig;
#X obj 170 190 s~ testsig;
#X obj 13 96 *~;
#X obj 43 61 tgl 28 0 empty empty empty 17 7 0 10 -262144 -1 -1 0 1
;
#X text 406 -54 Exercise: How could this patch be modified so that
switching the test signals on and off doesn't result in any clicking
sounds?;
#X obj 105 594 output~;
#X obj 129 547 r~ testsig;
#X text 180 602 Unfiltered test signal;
#X text 117 472 1st order lowpass filter;
#X obj 348 30 playwav-abstraction-loop Linndrumloop.wav;
#X obj 348 100 *~;
#X obj 378 65 tgl 28 0 empty empty empty 17 7 0 10 -262144 -1 -1 0
1;
#X text 877 524 Quality factor "Q";
#X obj 576 443 r~ testsig;
#X obj 680 647 output~;
#X text 750 656 2nd order bandpass filter;
#X obj 688 537 *~ 40;
#X text 1004 554 <--- Interpolation time;
#X text 1056 579 (Like the time constant;
#X text 1063 600 for line~);
#X text 508 115 Start with a broadband signal and filter it;
#X text 508 90 Subtractive synthesis:;
#X text 855 415 MIDI note number;
#X floatatom 563 251 10 20 20000 0 - - -;
#X text 678 251 Hz;
#X obj 563 217 mtof;
#X floatatom 563 185 5 18 130 0 - - -;
#X text 622 185 MIDI note num;
#X obj 431 357 output~;
#X obj 419 235 r~ testsig;
#X text 501 366 1st order lowpass filter;
#X obj 467 284 hip~ 2000;
#X obj 170 76 phasor~;
#X floatatom 170 44 10 20 20000 0 - - -;
#X text 285 44 Hz;
#X obj 170 10 mtof;
#X floatatom 170 -22 5 18 130 0 - - -;
#X text 229 -22 MIDI note num;
#X obj 170 143 *~;
#X obj 200 108 tgl 28 0 empty empty empty 17 7 0 10 -262144 -1 -1 0
1;
#X obj 976 318 moog~;
#X text 920 288 Exercise: Try this one out;
#X connect 1 0 2 0;
#X connect 2 0 3 0;
#X connect 3 0 8 1;
#X connect 5 0 8 3;
#X connect 7 0 8 2;
#X connect 8 0 31 0;
#X connect 8 0 31 1;
#X connect 9 0 15 0;
#X connect 9 0 15 1;
#X connect 10 0 9 1;
#X connect 12 0 10 0;
#X connect 13 0 12 0;
#X connect 16 0 19 0;
#X connect 17 0 9 0;
#X connect 19 0 18 0;
#X connect 20 0 19 1;
#X connect 23 0 22 0;
#X connect 23 0 22 1;
#X connect 26 0 27 0;
#X connect 27 0 18 0;
#X connect 28 0 27 1;
#X connect 30 0 33 0;
#X connect 33 0 8 0;
#X connect 40 0 48 1;
#X connect 42 0 40 0;
#X connect 43 0 42 0;
#X connect 46 0 48 0;
#X connect 48 0 45 0;
#X connect 48 0 45 1;
#X connect 49 0 55 0;
#X connect 50 0 49 0;
#X connect 52 0 50 0;
#X connect 53 0 52 0;
#X connect 55 0 18 0;
#X connect 56 0 55 1;
