#N canvas 1707 59 721 655 24;
#X obj 39 599 dac~;
#X obj 42 548 *~;
#X obj 113 509 line~;
#X msg 113 473 \$1 50;
#X obj 113 436 / 127;
#X text 116 387 Level;
#X obj 351 289 line~;
#X obj 42 233 phasor~;
#X obj 42 118 random 60;
#X obj 42 157 + 30;
#X obj 42 196 mtof;
#X obj 42 13 bng 30 250 50 0 empty empty empty 0 -6 0 8 -262144 -1
-1;
#X text 194 9 makes a triangular envelope using line~;
#X msg 257 191 0.5 40;
#X obj 351 192 delay 40;
#X text 278 162 attack time is 40;
#X msg 351 250 0 100;
#X text 416 250 release time is 100;
#X obj 116 415 hsl 128 15 0 127 0 0 empty empty empty -2 -8 0 10 -262144
-1 -1 4700 1;
#X obj 42 376 *~;
#X obj 42 61 t b b b;
#X connect 1 0 0 0;
#X connect 1 0 0 1;
#X connect 2 0 1 1;
#X connect 3 0 2 0;
#X connect 4 0 3 0;
#X connect 6 0 19 1;
#X connect 7 0 19 0;
#X connect 8 0 9 0;
#X connect 9 0 10 0;
#X connect 10 0 7 0;
#X connect 11 0 20 0;
#X connect 13 0 6 0;
#X connect 14 0 16 0;
#X connect 16 0 6 0;
#X connect 18 0 4 0;
#X connect 19 0 1 0;
#X connect 20 0 8 0;
#X connect 20 1 13 0;
#X connect 20 2 14 0;
