#N canvas 156 93 763 580 36;
#X obj 474 -220 hsl 128 15 60 120 0 0 empty empty empty -2 -8 0 10
-262144 -1 -1 9500 1;
#X floatatom 471 -195 5 40 120 0 - - -;
#X text 591 -197 dB;
#X floatatom 472 -78 5 0 0 0 - - -;
#X obj 472 -137 dbtorms;
#X msg 472 -23 \$1 20;
#X obj 472 33 line~;
#X obj 84 -50 *~;
#X obj 16 32 dac~ 1 2;
#X obj 84 -212 readsf~;
#X obj 64 -369 t b b;
#X msg 171 -304 open gbell-4-2-ff.wav;
#X msg 14 -303 start;
#X obj 64 -429 bng 50 250 50 0 empty empty empty 17 7 0 10 -262144
-1 -1;
#X text 124 -427 Play it;
#X text 614 -242 Volume;
#X obj 64 -492 key;
#X connect 0 0 1 0;
#X connect 1 0 4 0;
#X connect 3 0 5 0;
#X connect 4 0 3 0;
#X connect 5 0 6 0;
#X connect 6 0 7 1;
#X connect 7 0 8 0;
#X connect 7 0 8 1;
#X connect 9 0 7 0;
#X connect 10 0 12 0;
#X connect 10 1 11 0;
#X connect 11 0 9 0;
#X connect 12 0 9 0;
#X connect 13 0 10 0;
#X connect 16 0 13 0;
