#N canvas 300 371 865 428 24;
#X obj 39 135 tabread4~ mysample;
#X obj 39 88 line~;
#X obj 36 387 dac~;
#X obj 39 349 *~;
#X obj 69 314 line~;
#X msg 69 280 \$1 50;
#X obj 138 229 vsl 25 128 0 127 0 0 empty empty empty 0 -8 0 8 -262144
-1 -1 10800 1;
#X obj 69 247 / 127;
#X text 174 337 Level;
#X msg 39 33 0 \, 220500 5000;
#X text 5 4 play once \, normal speed;
#X text 250 9 play once \, double speed;
#X msg 254 33 0 \, 220500 2500;
#X text 250 68 play once \, half speed;
#X msg 254 92 0 \, 220500 10000;
#X msg 535 36 220500 \, 0 5000;
#X text 509 13 play backwards \, normal speed;
#X text 488 355 need to have the recorder patch open;
#X connect 0 0 3 0;
#X connect 1 0 0 0;
#X connect 3 0 2 0;
#X connect 3 0 2 1;
#X connect 4 0 3 1;
#X connect 5 0 4 0;
#X connect 6 0 7 0;
#X connect 7 0 5 0;
#X connect 9 0 1 0;
#X connect 12 0 1 0;
#X connect 14 0 1 0;
#X connect 15 0 1 0;
