#N canvas 1912 0 1920 997 12;
#X obj 6 152 bng 15 250 50 0 empty empty empty 17 7 0 10 -262144 -1
-1;
#X obj 6 314 +;
#X msg 6 255 1.1;
#X msg 66 254 2.3;
#X floatatom 6 374 5 0 0 0 - - -;
#X text 23 150 bang;
#X msg -220 2732 0.1;
#X msg -174 2745 0.1;
#X msg -163 2711 0.1;
#X msg -131 2739 0.1;
#X msg -111 2713 0.1;
#X msg -87 2739 0.1;
#X msg -60 2717 0.1;
#X msg -32 2737 0.1;
#X floatatom 152 2720 5 20 300 0 - - -;
#X text 188 2719 <-- Try numbers between 50 and 80;
#X text -179 1863 Send bang to these messages or send "volume" gains
to the corresponding inlets to my-synth ...;
#N canvas 150 231 1440 456 my-synth 0;
#X obj 8 9 inlet;
#X obj 105 65 inlet;
#X obj 198 4 inlet;
#X obj 295 64 inlet;
#X obj 851 350 dac~;
#X obj 423 15 inlet;
#X obj 555 92 inlet;
#X obj 699 11 inlet;
#X obj 828 65 inlet;
#X obj 1516 231 inlet;
#N canvas 416 379 450 300 osc-synth 0;
#X obj 64 16 inlet;
#X obj 121 264 outlet~;
#X obj 133 82 mtof;
#X obj 133 129 phasor~;
#X obj 88 56 t b b f;
#X obj 78 154 line~;
#X obj 119 180 *~;
#X msg 95 105 1 15;
#X obj 17 98 delay 15;
#X msg 35 129 0 40;
#X obj 118 209 onepole~ 1500 Hz.;
#X obj 121 241 *~ 0.022;
#X connect 0 0 4 0;
#X connect 2 0 3 0;
#X connect 3 0 6 1;
#X connect 4 0 8 0;
#X connect 4 1 7 0;
#X connect 4 2 2 0;
#X connect 5 0 6 0;
#X connect 6 0 10 0;
#X connect 7 0 5 0;
#X connect 8 0 9 0;
#X connect 9 0 5 0;
#X connect 10 0 11 0;
#X connect 11 0 1 0;
#X restore 1516 256 pd osc-synth;
#X obj 8 31 playwav-abstraction gbell-1-1-pp.wav;
#X obj 105 88 playwav-abstraction gbell-1-2-pp.wav;
#X obj 198 28 playwav-abstraction gbell-2-1-pp.wav;
#X obj 295 86 playwav-abstraction gbell-2-2-pp.wav;
#X obj 423 37 playwav-abstraction gbell-3-1-pp.wav;
#X obj 555 115 playwav-abstraction gbell-3-2-pp.wav;
#X obj 699 35 playwav-abstraction gbell-4-1-pp.wav;
#X obj 828 87 playwav-abstraction gbell-4-2-pp.wav;
#X obj 1047 -21 inlet;
#X obj 1166 125 inlet;
#X obj 1267 32 inlet;
#X obj 1364 92 inlet;
#X obj 1492 43 inlet;
#X obj 1047 1 playwav-abstraction gbell-5-1-pp.wav;
#X obj 1166 148 playwav-abstraction gbell-5-2-pp.wav;
#X obj 1267 56 playwav-abstraction gbell-6-1-pp.wav;
#X obj 1364 114 playwav-abstraction gbell-6-2-pp.wav;
#X obj 1492 65 playwav-abstraction gbell-9-2-pp.wav;
#X connect 0 0 11 0;
#X connect 1 0 12 0;
#X connect 2 0 13 0;
#X connect 3 0 14 0;
#X connect 5 0 15 0;
#X connect 6 0 16 0;
#X connect 7 0 17 0;
#X connect 8 0 18 0;
#X connect 9 0 10 0;
#X connect 10 0 4 1;
#X connect 10 0 4 0;
#X connect 11 0 4 0;
#X connect 12 0 4 1;
#X connect 13 0 4 0;
#X connect 14 0 4 1;
#X connect 15 0 4 0;
#X connect 16 0 4 1;
#X connect 17 0 4 0;
#X connect 18 0 4 1;
#X connect 19 0 24 0;
#X connect 20 0 25 0;
#X connect 21 0 26 0;
#X connect 22 0 27 0;
#X connect 23 0 28 0;
#X connect 24 0 4 0;
#X connect 25 0 4 1;
#X connect 26 0 4 0;
#X connect 27 0 4 1;
#X connect 28 0 4 0;
#X restore -139 2808 pd my-synth just-make-this-object-look-longer
;
#X msg 1 2706 0.1;
#X msg 31 2741 0.1;
#X msg 50 2703 0.1;
#X msg 68 2738 0.1;
#X msg 116 2706 0.1;
#N canvas 85 461 613 187 some-synths 0;
#X obj 15 16 inlet;
#X obj 269 153 dac~;
#X obj 173 16 inlet;
#N canvas 416 379 450 300 osc-synth 0;
#X obj 64 16 inlet;
#X obj 121 264 outlet~;
#X obj 133 82 mtof;
#X obj 88 56 t b b f;
#X obj 78 154 line~;
#X obj 119 180 *~;
#X msg 95 105 1 15;
#X obj 17 98 delay 15;
#X msg 35 129 0 40;
#X obj 118 209 onepole~ 1500 Hz.;
#X obj 133 129 osc~;
#X obj 121 241 *~ 0.1;
#X connect 0 0 3 0;
#X connect 2 0 10 0;
#X connect 3 0 7 0;
#X connect 3 1 6 0;
#X connect 3 2 2 0;
#X connect 4 0 5 0;
#X connect 5 0 9 0;
#X connect 6 0 4 0;
#X connect 7 0 8 0;
#X connect 8 0 4 0;
#X connect 9 0 11 0;
#X connect 10 0 5 1;
#X connect 11 0 1 0;
#X restore 172 42 pd osc-synth;
#X obj 311 16 inlet;
#X obj 470 16 inlet;
#N canvas 416 379 450 300 phasor-synth 0;
#X obj 64 16 inlet;
#X obj 121 264 outlet~;
#X obj 133 82 mtof;
#X obj 133 129 phasor~;
#X obj 88 56 t b b f;
#X obj 78 154 line~;
#X obj 119 180 *~;
#X msg 95 105 1 15;
#X obj 17 98 delay 15;
#X msg 35 129 0 40;
#X obj 118 209 onepole~ 1500 Hz.;
#X obj 121 241 *~ 0.022;
#X connect 0 0 4 0;
#X connect 2 0 3 0;
#X connect 3 0 6 1;
#X connect 4 0 8 0;
#X connect 4 1 7 0;
#X connect 4 2 2 0;
#X connect 5 0 6 0;
#X connect 6 0 10 0;
#X connect 7 0 5 0;
#X connect 8 0 9 0;
#X connect 9 0 5 0;
#X connect 10 0 11 0;
#X connect 11 0 1 0;
#X restore 15 41 pd phasor-synth;
#N canvas 413 377 450 300 square-synth 0;
#X obj 64 16 inlet;
#X obj 121 264 outlet~;
#X obj 133 82 mtof;
#X obj 88 56 t b b f;
#X obj 78 154 line~;
#X obj 119 180 *~;
#X obj 118 209 onepole~ 1500 Hz.;
#X obj 121 241 *~ 0.022;
#X obj 133 129 square~;
#X msg 95 105 1 2;
#X obj 17 98 delay 2;
#X msg 35 129 0 120;
#X connect 0 0 3 0;
#X connect 2 0 8 0;
#X connect 3 0 10 0;
#X connect 3 1 9 0;
#X connect 3 2 2 0;
#X connect 4 0 5 0;
#X connect 5 0 6 0;
#X connect 6 0 7 0;
#X connect 7 0 1 0;
#X connect 8 0 5 1;
#X connect 9 0 4 0;
#X connect 10 0 11 0;
#X connect 11 0 4 0;
#X restore 311 41 pd square-synth;
#N canvas 416 379 698 304 octave-synth 0;
#X obj 64 -4 inlet;
#X obj 117 267 outlet~;
#X obj 133 62 mtof;
#X obj 133 129 phasor~;
#X obj 88 36 t b b f;
#X obj 75 157 line~;
#X obj 115 183 *~;
#X obj 114 212 onepole~ 1500 Hz.;
#X obj 117 244 *~ 0.022;
#X obj 226 130 phasor~;
#X obj 226 104 / 2;
#X text 254 102 Dividing the frequency by two drops the note by an
octave.;
#X msg 95 105 1 30;
#X obj 17 98 delay 30;
#X msg 35 129 0 350;
#X connect 0 0 4 0;
#X connect 2 0 3 0;
#X connect 2 0 10 0;
#X connect 3 0 6 1;
#X connect 4 0 13 0;
#X connect 4 1 12 0;
#X connect 4 2 2 0;
#X connect 5 0 6 0;
#X connect 6 0 7 0;
#X connect 7 0 8 0;
#X connect 8 0 1 0;
#X connect 9 0 6 1;
#X connect 10 0 9 0;
#X connect 12 0 5 0;
#X connect 13 0 14 0;
#X connect 14 0 5 0;
#X restore 470 41 pd octave-synth;
#X connect 0 0 6 0;
#X connect 2 0 3 0;
#X connect 3 0 1 1;
#X connect 4 0 7 0;
#X connect 5 0 8 0;
#X connect 6 0 1 0;
#X connect 7 0 1 0;
#X connect 8 0 1 1;
#X restore -223 1604 pd some-synths;
#X floatatom -94 1603 5 20 300 0 - - -;
#X text -58 1602 <-- Try numbers between 50 and 80;
#X floatatom -137 1570 5 20 300 0 - - -;
#X text -101 1569 <-- Try numbers between 50 and 80;
#X floatatom -189 1538 5 20 300 0 - - -;
#X text -153 1537 <-- Try numbers between 50 and 80;
#X floatatom -257 1501 5 20 300 0 - - -;
#X text -216 1510 <-- Try numbers between 50 and 80;
#X text -374 3 Lab 1 - This lab designed by Edgar Berdahl.;
#X text -374 17 3 Parts;
#X obj -358 1827 coll;
#C flags 1 0;
#C restore;
#X msg -285 1802 flags 1 0;
#X obj -285 1778 loadbang;
#X text -180 1775 This part of the patch makes it so that the contents
of the "coll" object are stored within the patch. That way \, if you
change the "coll \, " modify the patch \, save the patch \, and then
reopen the patch \, your updated "coll" contents will still be there.
;
#X obj -358 1853 iter;
#X obj -345 1879 print cameoutofcoll;
#X obj -358 1744 bng 45 250 50 0 empty empty empty 17 7 0 10 -262144
-1 -1;
#X obj 321 1137 maxlib/scale;
#X obj 111 1088 key;
#X floatatom 138 1122 5 0 0 0 - - -;
#X obj 206 1089 notein;
#X floatatom 206 1115 5 0 0 0 - - -;
#X floatatom 225 1140 5 0 0 0 - - -;
#X floatatom 245 1165 5 0 0 0 - - -;
#X text 254 1087 (If you have a MIDI device connected and working.)
;
#X text 108 1066 Other generally useful objects:;
#X text -368 991 C. Make a simple but intriguing ditty using objects
such as "metro \, " "random \, " "urn \, " "drunk \, " or "sel." Use
some math objects too (i.e. + \, - \, * \, / \, etc.) Connect these
objects to the synths down below.;
#X text -373 61 A. Fix the following patch so that it always produces
the result 3.4 when you click on the bang button.;
#X text -371 520 B. Make a patch that sends out a bang at random intervals.
In other words \, it should be a like a randomized "metro" object.
Hint: You could make one using a "bang" object \, a "delay" object
\, a "random" object \, and a "t b f" object.;
#X text -368 1656 D. Put (and save) some data in the "coll" object
and connect it to the synthesizer further below. It might help you
to use the "sel" object to convert numbers/messages into bangs coming
out specific outlets. Program it to play something interesting.;
#X obj 6 193 t b b;
#X obj 1 599 bng 15 250 50 0 empty empty empty 17 7 0 10 -262144 -1
-1;
#X text 20 597 bang;
#X obj 10 705 t b f;
#X floatatom 42 750 5 0 0 0 - - -;
#X obj -171 793 delay 1000;
#X obj 67 634 random 1000;
#X msg 17 858 0.1;
#X msg 63 871 0.1;
#X msg 74 837 0.1;
#X msg 106 865 0.1;
#X msg 126 839 0.1;
#X msg 150 865 0.1;
#X msg 177 843 0.1;
#X msg 205 863 0.1;
#N canvas 150 231 1440 456 my-synth 0;
#X obj 8 9 inlet;
#X obj 105 65 inlet;
#X obj 198 4 inlet;
#X obj 295 64 inlet;
#X obj 851 350 dac~;
#X obj 423 15 inlet;
#X obj 555 92 inlet;
#X obj 699 11 inlet;
#X obj 828 65 inlet;
#X obj 1516 231 inlet;
#N canvas 416 379 450 300 osc-synth 0;
#X obj 64 16 inlet;
#X obj 121 264 outlet~;
#X obj 133 82 mtof;
#X obj 133 129 phasor~;
#X obj 88 56 t b b f;
#X obj 78 154 line~;
#X obj 119 180 *~;
#X msg 95 105 1 15;
#X obj 17 98 delay 15;
#X msg 35 129 0 40;
#X obj 118 209 onepole~ 1500 Hz.;
#X obj 121 241 *~ 0.022;
#X connect 0 0 4 0;
#X connect 2 0 3 0;
#X connect 3 0 6 1;
#X connect 4 0 8 0;
#X connect 4 1 7 0;
#X connect 4 2 2 0;
#X connect 5 0 6 0;
#X connect 6 0 10 0;
#X connect 7 0 5 0;
#X connect 8 0 9 0;
#X connect 9 0 5 0;
#X connect 10 0 11 0;
#X connect 11 0 1 0;
#X restore 1516 256 pd osc-synth;
#X obj 8 31 playwav-abstraction gbell-1-1-pp.wav;
#X obj 105 88 playwav-abstraction gbell-1-2-pp.wav;
#X obj 198 28 playwav-abstraction gbell-2-1-pp.wav;
#X obj 295 86 playwav-abstraction gbell-2-2-pp.wav;
#X obj 423 37 playwav-abstraction gbell-3-1-pp.wav;
#X obj 555 115 playwav-abstraction gbell-3-2-pp.wav;
#X obj 699 35 playwav-abstraction gbell-4-1-pp.wav;
#X obj 828 87 playwav-abstraction gbell-4-2-pp.wav;
#X obj 1047 -21 inlet;
#X obj 1166 125 inlet;
#X obj 1267 32 inlet;
#X obj 1364 92 inlet;
#X obj 1492 43 inlet;
#X obj 1047 1 playwav-abstraction gbell-5-1-pp.wav;
#X obj 1166 148 playwav-abstraction gbell-5-2-pp.wav;
#X obj 1267 56 playwav-abstraction gbell-6-1-pp.wav;
#X obj 1364 114 playwav-abstraction gbell-6-2-pp.wav;
#X obj 1492 65 playwav-abstraction gbell-9-2-pp.wav;
#X connect 0 0 11 0;
#X connect 1 0 12 0;
#X connect 2 0 13 0;
#X connect 3 0 14 0;
#X connect 5 0 15 0;
#X connect 6 0 16 0;
#X connect 7 0 17 0;
#X connect 8 0 18 0;
#X connect 9 0 10 0;
#X connect 10 0 4 1;
#X connect 10 0 4 0;
#X connect 11 0 4 0;
#X connect 12 0 4 1;
#X connect 13 0 4 0;
#X connect 14 0 4 1;
#X connect 15 0 4 0;
#X connect 16 0 4 1;
#X connect 17 0 4 0;
#X connect 18 0 4 1;
#X connect 19 0 24 0;
#X connect 20 0 25 0;
#X connect 21 0 26 0;
#X connect 22 0 27 0;
#X connect 23 0 28 0;
#X connect 24 0 4 0;
#X connect 25 0 4 1;
#X connect 26 0 4 0;
#X connect 27 0 4 1;
#X connect 28 0 4 0;
#X restore 98 934 pd my-synth just-make-this-object-look-longer;
#X msg 238 832 0.1;
#X msg 268 867 0.1;
#X obj -232 1137 bng 15 250 50 0 empty empty empty 17 7 0 10 -262144
-1 -1;
#X text -213 1134 bang;
#X msg -68 1362 50;
#X obj -89 1130 bng 15 250 50 0 empty empty empty 17 7 0 10 -262144
-1 -1;
#X text -70 1126 bang;
#X obj 347 382 drunk 10;
#X floatatom 347 410 5 0 0 0 - - -;
#X obj 347 81 metro 300;
#X obj 347 58 tgl 15 0 empty empty empty 0 -6 0 8 -262144 -1 -1 0 1
;
#X floatatom 306 117 5 0 0 0 - - -;
#X msg 359 162 set \$1;
#X floatatom 359 139 5 0 0 0 - - -;
#X text 412 162 set new bound without triggering output;
#X text 427 83 bang triggers output;
#X msg 436 248 10 20 4;
#X text 502 248 first sets current value;
#X text 502 261 second sets bound;
#X text 502 274 third (if present) limits stepsize;
#X msg 436 270 5 30;
#X msg 378 223 seed \$1;
#X text 443 222 seed rng;
#X floatatom 378 201 5 0 0 0 - - -;
#X text 351 118 set new value and output;
#X floatatom 414 339 5 0 0 0 - - -;
#X floatatom 419 355 5 0 0 0 - - -;
#X text 459 337 set upper bound;
#X text 467 352 set stepsize;
#X text 410 377 args set initial bound and maximum stepsize;
#X text 410 388 default 128 2;
#X obj -209 1342 t b b;
#X obj -197 1442 +;
#X obj -280 1261 drunk 30;
#X obj -162 1395 random 10;
#X obj -284 1337 + 50;
#X obj -148 1152 bng 15 250 50 0 empty empty empty 17 7 0 10 -262144
-1 -1;
#X floatatom -47 1220 5 0 0 0 - - -;
#X obj -135 1227 select 5;
#X obj -135 1195 random 20;
#X obj -231 1395 60;
#X msg 90 2344 flags 1 0;
#X obj 90 2314 loadbang;
#X obj -17 2414 print cameoutofcoll;
#X obj -127 2309 bng 45 250 50 0 empty empty empty 17 7 0 10 -262144
-1 -1;
#X obj -46 2222 bng 15 250 50 0 empty empty empty 17 7 0 10 -262144
-1 -1;
#X floatatom -46 2336 5 0 0 0 - - -;
#X obj -116 1926 tgl 15 0 empty empty empty 17 7 0 10 -262144 -1 -1
1 1;
#X text -128 1123 comment;
#X obj -158 1083 tgl 25 0 empty empty empty 17 7 0 10 -262144 -1 -1
0 1;
#X obj -46 2379 coll lab1.txt;
#C flags 1 0;
#C 0 50 60 70 80;
#C 1 53 54 55 56;
#C 2 55 60 65 70;
#C 3 51 59 67 73;
#C 4 80 80 80 80;
#C 5 80 79 78 77;
#C 6 77 75 73 71;
#C 7 69 68 60 62;
#C 8 70 57 72 63;
#C 9 80 78 72 74;
#C 10 52 79 71 63;
#C restore;
#X obj -46 2444 unpack 0 0 0 0;
#X obj -225 2610 select 5 6 7 8;
#X obj -145 2492 div 10;
#X obj -48 2491 mod 10;
#X obj -79 2609 sel 0 1 2 3 4 5 6 7 8 9;
#X obj -265 2515 print div;
#X obj 160 2498 print mod;
#X obj 254 2530 mod 9;
#X obj 273 2467 t b f;
#X obj 364 2484 random 4;
#X floatatom 364 2532 5 0 0 0 - - -;
#X obj 364 2444 bng 15 250 50 0 empty empty empty 17 7 0 10 -262144
-1 -1;
#X obj 302 2587 +;
#X floatatom 356 2628 5 0 0 0 - - -;
#X obj 28 2032 t b f;
#X floatatom 95 2077 5 0 0 0 - - -;
#X obj 28 2110 delay 1000;
#X obj 28 1984 random 1000;
#X text -223 2116 comment;
#X obj 107 2629 sel 8 9 10 11;
#X obj -316 1202 delay 500;
#X obj -86 1260 delay 5000;
#X msg -146 1313 50;
#X obj -169 1262 delay 500;
#X obj 57 1241 delay 400;
#X obj 223 2664 + 50;
#X obj -31 1961 bng 15 250 50 0 empty empty empty 17 7 0 10 -262144
-1 -1;
#X obj -46 2273 counter 0 0 11;
#X obj 218 2283 metro 750;
#X connect 0 0 54 0;
#X connect 1 0 4 0;
#X connect 2 0 1 0;
#X connect 3 0 1 1;
#X connect 6 0 17 0;
#X connect 7 0 17 1;
#X connect 8 0 17 2;
#X connect 9 0 17 3;
#X connect 10 0 17 4;
#X connect 11 0 17 5;
#X connect 12 0 17 6;
#X connect 13 0 17 7;
#X connect 14 0 17 13;
#X connect 18 0 17 8;
#X connect 19 0 17 9;
#X connect 20 0 17 10;
#X connect 21 0 17 11;
#X connect 22 0 17 12;
#X connect 24 0 23 3;
#X connect 26 0 23 2;
#X connect 28 0 23 1;
#X connect 30 0 23 0;
#X connect 34 0 38 0;
#X connect 35 0 34 0;
#X connect 36 0 35 0;
#X connect 38 0 39 0;
#X connect 40 0 34 0;
#X connect 42 0 43 0;
#X connect 44 0 45 0;
#X connect 44 1 46 0;
#X connect 44 2 47 0;
#X connect 54 0 2 0;
#X connect 54 1 3 0;
#X connect 55 0 60 0;
#X connect 57 0 59 0;
#X connect 57 1 58 0;
#X connect 58 0 59 1;
#X connect 59 0 55 0;
#X connect 59 0 61 0;
#X connect 59 0 65 0;
#X connect 59 0 70 0;
#X connect 59 0 62 0;
#X connect 59 0 71 0;
#X connect 60 0 57 0;
#X connect 61 0 69 0;
#X connect 62 0 69 1;
#X connect 63 0 69 2;
#X connect 64 0 69 3;
#X connect 65 0 69 4;
#X connect 66 0 69 5;
#X connect 67 0 69 6;
#X connect 68 0 69 7;
#X connect 70 0 69 8;
#X connect 71 0 69 9;
#X connect 72 0 141 0;
#X connect 74 0 24 0;
#X connect 75 0 145 0;
#X connect 77 0 78 0;
#X connect 79 0 77 0;
#X connect 80 0 79 0;
#X connect 81 0 77 0;
#X connect 82 0 77 0;
#X connect 83 0 82 0;
#X connect 86 0 77 0;
#X connect 90 0 77 0;
#X connect 91 0 77 0;
#X connect 93 0 91 0;
#X connect 95 0 77 1;
#X connect 96 0 77 2;
#X connect 101 0 110 0;
#X connect 101 1 104 0;
#X connect 102 0 28 0;
#X connect 102 0 26 0;
#X connect 103 0 105 0;
#X connect 103 0 101 0;
#X connect 104 0 102 1;
#X connect 105 0 30 0;
#X connect 105 0 28 0;
#X connect 106 0 109 0;
#X connect 108 0 144 0;
#X connect 108 1 142 0;
#X connect 109 0 107 0;
#X connect 109 0 108 0;
#X connect 110 0 102 0;
#X connect 111 0 120 0;
#X connect 112 0 111 0;
#X connect 114 0 120 0;
#X connect 115 0 148 0;
#X connect 116 0 120 0;
#X connect 117 0 147 0;
#X connect 117 0 149 0;
#X connect 119 0 72 0;
#X connect 119 0 106 0;
#X connect 119 0 75 0;
#X connect 120 0 113 0;
#X connect 120 0 121 0;
#X connect 121 0 123 0;
#X connect 121 1 124 0;
#X connect 121 2 129 0;
#X connect 122 0 6 0;
#X connect 122 1 7 0;
#X connect 122 2 8 0;
#X connect 122 3 9 0;
#X connect 122 4 10 0;
#X connect 123 0 122 0;
#X connect 123 0 126 0;
#X connect 124 0 125 0;
#X connect 124 0 127 0;
#X connect 125 0 6 0;
#X connect 125 1 8 0;
#X connect 125 2 9 0;
#X connect 125 3 10 0;
#X connect 125 4 11 0;
#X connect 125 5 12 0;
#X connect 125 6 13 0;
#X connect 125 7 18 0;
#X connect 125 8 19 0;
#X connect 125 9 20 0;
#X connect 125 10 21 0;
#X connect 128 0 133 0;
#X connect 129 0 128 0;
#X connect 130 0 131 0;
#X connect 131 0 133 1;
#X connect 132 0 130 0;
#X connect 133 0 134 0;
#X connect 133 0 140 0;
#X connect 135 0 137 0;
#X connect 135 1 136 0;
#X connect 136 0 137 1;
#X connect 137 0 115 0;
#X connect 137 0 147 0;
#X connect 138 0 135 0;
#X connect 140 0 19 0;
#X connect 140 1 20 0;
#X connect 140 2 21 0;
#X connect 140 3 22 0;
#X connect 140 4 146 0;
#X connect 141 0 103 0;
#X connect 141 0 72 0;
#X connect 142 0 143 0;
#X connect 142 0 106 0;
#X connect 143 0 24 0;
#X connect 144 0 143 0;
#X connect 144 0 106 0;
#X connect 145 0 74 0;
#X connect 145 0 75 0;
#X connect 146 0 14 0;
#X connect 147 0 138 0;
#X connect 148 0 116 0;
#X connect 149 0 132 0;
