#N canvas 431 22 844 767 24;
#X obj 39 682 dac~;
#X msg 243 612 \; pd dsp 0;
#X msg 244 556 \; pd dsp 1;
#X obj 42 631 *~;
#X obj 81 593 line~;
#X msg 81 557 \$1 50;
#X obj 81 372 vsl 25 128 0 127 0 0 empty empty empty 0 -8 0 8 -262144
-1 -1 0 1;
#X obj 81 520 / 127;
#X text 113 449 Level;
#X obj 42 336 *~;
#X obj 352 374 line~;
#X obj 42 233 phasor~;
#X obj 42 118 random 60;
#X obj 42 157 + 30;
#X obj 42 196 mtof;
#X obj 42 13 bng 30 250 50 0 empty empty empty 0 -6 0 8 -262144 -1
-1;
#X msg 262 298 0.5 \$1;
#X msg 352 296 0 \$1;
#X text 449 97 release time;
#X text 258 94 attack time;
#X floatatom 292 130 5 0 0 0 - - -;
#X obj 42 61 t b b;
#X floatatom 453 131 5 0 0 0 - - -;
#X obj 262 205 i;
#X obj 352 192 delay;
#X obj 352 258 i;
#X text 276 10 makes a triangular envelope using line~;
#X text 430 185 wait until the attack is done;
#X text 430 206 then start the release;
#X connect 3 0 0 0;
#X connect 3 0 0 1;
#X connect 4 0 3 1;
#X connect 5 0 4 0;
#X connect 6 0 7 0;
#X connect 7 0 5 0;
#X connect 9 0 3 0;
#X connect 10 0 9 1;
#X connect 11 0 9 0;
#X connect 12 0 13 0;
#X connect 13 0 14 0;
#X connect 14 0 11 0;
#X connect 15 0 21 0;
#X connect 16 0 10 0;
#X connect 17 0 10 0;
#X connect 20 0 23 1;
#X connect 20 0 24 1;
#X connect 21 0 12 0;
#X connect 21 1 23 0;
#X connect 21 1 24 0;
#X connect 22 0 25 1;
#X connect 23 0 16 0;
#X connect 24 0 25 0;
#X connect 25 0 17 0;
