#N canvas 0 22 547 534 12;
#X obj 48 192 tabread4~ mysample;
#X obj 45 396 dac~;
#X obj 48 358 *~;
#X obj 78 327 line~;
#X msg 78 299 \$1 50;
#X obj 132 233 vsl 25 128 0 127 0 0 empty empty empty 0 -8 0 8 -262144
-1 -1 7000 1;
#X obj 78 273 / 127;
#X text 168 341 Level;
#X obj 48 39 phasor~;
#X floatatom 48 -1 5 0 0 0 - - -;
#X text 89 -3 set loop period;
#X obj 48 146 +~ 0;
#X floatatom 121 122 5 0 0 0 - - -;
#X obj 48 87 *~ 44100;
#X text 113 88 loop duration (in samples);
#X text 84 144 loop start point (in samples);
#X floatatom 119 62 5 0 0 0 - - -;
#X connect 0 0 2 0;
#X connect 2 0 1 0;
#X connect 2 0 1 1;
#X connect 3 0 2 1;
#X connect 4 0 3 0;
#X connect 5 0 6 0;
#X connect 6 0 4 0;
#X connect 8 0 13 0;
#X connect 9 0 8 0;
#X connect 11 0 0 0;
#X connect 12 0 11 1;
#X connect 13 0 11 0;
#X connect 16 0 13 1;
