#N canvas 450 210 763 615 12;
#X obj 420 118 soundfiler;
#N canvas 0 22 450 278 (subpatch) 0;
#X array drums 123105 float 2;
#X coords 0 1 123105 -1 200 140 1;
#X restore 284 358 graph;
#X msg 420 87 read -resize Linndrumloop.wav drums;
#X obj 55 517 dac~;
#X obj 58 479 *~;
#X obj 88 448 line~;
#X msg 88 420 \$1 50;
#X obj 142 354 vsl 25 128 0 127 0 0 empty empty empty 0 -8 0 8 -262144
-1 -1 7100 1;
#X obj 88 394 / 127;
#X text 178 462 Level;
#X obj 58 222 phasor~;
#X floatatom 58 182 5 0 0 0 - - -;
#X text 99 180 set loop period;
#X text 123 271 loop duration (in samples);
#X floatatom 140 216 8 0 0 0 - - -;
#X obj 58 313 tabread4~ drums;
#X obj 420 47 loadbang;
#X floatatom 420 166 8 0 0 0 - - -;
#X obj 58 270 *~ 1;
#X obj 58 133 expr 1/($f1/44100);
#X connect 0 0 17 0;
#X connect 2 0 0 0;
#X connect 4 0 3 0;
#X connect 4 0 3 1;
#X connect 5 0 4 1;
#X connect 6 0 5 0;
#X connect 7 0 8 0;
#X connect 8 0 6 0;
#X connect 10 0 18 0;
#X connect 11 0 10 0;
#X connect 14 0 18 1;
#X connect 15 0 4 0;
#X connect 16 0 2 0;
#X connect 17 0 19 0;
#X connect 17 0 14 0;
#X connect 18 0 15 0;
#X connect 19 0 11 0;
